<?xml version="1.0" encoding="UTF-8"?>
<svg version="1.1" xmlns="http://www.w3.org/2000/svg" width="500" height="500">
<path d="M0 0 C165 0 330 0 500 0 C500 165 500 330 500 500 C335 500 170 500 0 500 C0 335 0 170 0 0 Z " fill="none" transform="translate(0,0)"/>
<path d="M0 0 C2.60078552 2.83026659 3 4.17745143 3 8 C3.66 8 4.32 8 5 8 C4.125 14.875 4.125 14.875 3 16 C4.65 16 6.3 16 8 16 C8.99 14.02 9.98 12.04 11 10 C11.495 11.485 11.495 11.485 12 13 C11.5359375 13.8353125 11.5359375 13.8353125 11.0625 14.6875 C9.46934674 18.15495121 9.87351741 21.2055224 10 25 C9.896875 24.360625 9.79375 23.72125 9.6875 23.0625 C9.460625 22.381875 9.23375 21.70125 9 21 C7.515 20.505 7.515 20.505 6 20 C6 19.67 6 19.34 6 19 C3.69 19 1.38 19 -1 19 C-0.01 19.99 -0.01 19.99 1 21 C-0.485 21.495 -0.485 21.495 -2 22 C0.97 22.33 3.94 22.66 7 23 C7 23.33 7 23.66 7 24 C6.30132812 24.06058594 5.60265625 24.12117188 4.8828125 24.18359375 C3.51769531 24.30927734 3.51769531 24.30927734 2.125 24.4375 C1.22007812 24.51871094 0.31515625 24.59992188 -0.6171875 24.68359375 C-3.01110861 24.86989285 -3.01110861 24.86989285 -5 26 C-2.45543849 28.96865509 0.48994665 30.3619751 4 32 C4 32.66 4 33.32 4 34 C4.598125 34.226875 5.19625 34.45375 5.8125 34.6875 C8.76738497 36.46043098 9.64499863 37.81574678 11 41 C11.67059173 45.45175955 11.60014305 48.84972582 9.5 52.875 C4.82619673 56.84773278 0.08599572 58.20110247 -6 58 C-6.02578125 57.26136719 -6.0515625 56.52273437 -6.078125 55.76171875 C-6.51196843 48.00183743 -7.21754243 39.36288584 -12.52734375 33.23828125 C-17.46654674 29.02365572 -21.35664708 28.76272024 -27.625 28.6875 C-28.40746094 28.65849609 -29.18992187 28.62949219 -29.99609375 28.59960938 C-36.73629708 28.52695378 -41.73216037 30.31383582 -46.953125 34.60546875 C-58.81870943 49.08005216 -59.58019285 69.13409342 -61 87 C-67.93 87 -74.86 87 -82 87 C-82.72586726 70.66798669 -78.27314188 54.91612021 -68 42 C-60.12691809 33.45387132 -49.64627948 27.37825793 -38 26 C-34.4375 25.875 -34.4375 25.875 -32 26 C-31.67 24.02 -31.34 22.04 -31 20 C-30.67 20 -30.34 20 -30 20 C-30 21.65 -30 23.3 -30 25 C-23.565 24.505 -23.565 24.505 -17 24 C-17 23.34 -17 22.68 -17 22 C-17.7425 21.896875 -18.485 21.79375 -19.25 21.6875 C-22.1973519 20.95066203 -23.78383074 20.05200858 -26 18 C-26 17.34 -26 16.68 -26 16 C-26.495 15.505 -26.495 15.505 -27 15 C-27.1875 11.5625 -27.1875 11.5625 -27 8 C-26.34 7.34 -25.68 6.68 -25 6 C-24.731875 6.928125 -24.46375 7.85625 -24.1875 8.8125 C-23.08851629 11.76240366 -22.37581439 13.05615186 -20 15 C-18.35 14.34 -16.7 13.68 -15 13 C-15 12.67 -15 12.34 -15 12 C-14.95875 11.030625 -14.9175 10.06125 -14.875 9.0625 C-14.65800539 5.89020726 -14.65800539 5.89020726 -17 4 C-20.08347826 3.83318891 -20.08347826 3.83318891 -23 4 C-22.67 3.34 -22.34 2.68 -22 2 C-21.07767578 2.03480469 -21.07767578 2.03480469 -20.13671875 2.0703125 C-18.92435547 2.09738281 -18.92435547 2.09738281 -17.6875 2.125 C-16.48673828 2.15980469 -16.48673828 2.15980469 -15.26171875 2.1953125 C-9.61190779 1.70741864 -6.33735908 -1.06689547 0 0 Z " fill="#E1DBD4" transform="translate(290,132)"/>
<path d="M0 0 C0.495 1.485 0.495 1.485 1 3 C2.32 3.33 3.64 3.66 5 4 C4.67 7.3 4.34 10.6 4 14 C4.99 14.33 5.98 14.66 7 15 C6.61908203 15.98226562 6.61908203 15.98226562 6.23046875 16.984375 C1.94930088 28.33668531 -0.34070281 38.86893165 -1 51 C5.93 51 12.86 51 20 51 C20 47.7 20 44.4 20 41 C20.33 41 20.66 41 21 41 C20.98839844 41.77085937 20.97679687 42.54171875 20.96484375 43.3359375 C20.95582031 44.33882812 20.94679687 45.34171875 20.9375 46.375 C20.92589844 47.37273437 20.91429687 48.37046875 20.90234375 49.3984375 C20.81993398 51.98432453 20.81993398 51.98432453 22 54 C21.1646875 54.34611328 21.1646875 54.34611328 20.3125 54.69921875 C15.44936331 56.7775525 11.130588 59.06597378 6.82421875 62.14453125 C4.49622149 63.23624731 3.36890556 62.85238765 1 62 C0.03644756 63.07869393 -0.92061417 64.16318743 -1.875 65.25 C-2.40867188 65.85328125 -2.94234375 66.4565625 -3.4921875 67.078125 C-6.29227314 70.64714608 -7.25877417 73.20167836 -7.125 77.75 C-7.10695312 78.54921875 -7.08890625 79.3484375 -7.0703125 80.171875 C-7.04710937 80.77515625 -7.02390625 81.3784375 -7 82 C-7.99 81.67 -8.98 81.34 -10 81 C-9.505 79.515 -9.505 79.515 -9 78 C-13.29 78 -17.58 78 -22 78 C-18.68629 75.79086 -17.6553979 75.77518447 -13.8125 75.875 C-12.91144531 75.89304687 -12.01039063 75.91109375 -11.08203125 75.9296875 C-10.39496094 75.95289063 -9.70789063 75.97609375 -9 76 C-8.855625 75.05125 -8.71125 74.1025 -8.5625 73.125 C-8 70 -8 70 -7 68 C-7.66 68 -8.32 68 -9 68 C-9.33 69.98 -9.66 71.96 -10 74 C-10.33 74 -10.66 74 -11 74 C-11 72.02 -11 70.04 -11 68 C-11.928125 68.226875 -12.85625 68.45375 -13.8125 68.6875 C-19.04282294 69.46077156 -24.14467085 67.90685072 -29 66 C-29.33 65.34 -29.66 64.68 -30 64 C-29.34 64 -28.68 64 -28 64 C-28.33 63.34 -28.66 62.68 -29 62 C-30.3303125 62.1546875 -30.3303125 62.1546875 -31.6875 62.3125 C-36.00684858 61.90501428 -37.25642975 60.2277297 -40 57 C-38.35 56.01 -36.7 55.02 -35 54 C-35.66 52.35 -36.32 50.7 -37 49 C-36 48 -36 48 -33.29296875 47.7578125 C-29.5568985 48.03258872 -27.52991921 48.99929396 -24.3125 50.875 C-23.38050781 51.40867188 -22.44851562 51.94234375 -21.48828125 52.4921875 C-19.63141941 53.61738164 -17.8065262 54.7956492 -16 56 C-16.09539062 55.15695313 -16.19078125 54.31390625 -16.2890625 53.4453125 C-16.39992187 52.34960938 -16.51078125 51.25390625 -16.625 50.125 C-16.79902344 48.48917969 -16.79902344 48.48917969 -16.9765625 46.8203125 C-16.98429687 45.88960937 -16.99203125 44.95890625 -17 44 C-16.34 43.34 -15.68 42.68 -15 42 C-14.93941406 43.07121094 -14.87882812 44.14242187 -14.81640625 45.24609375 C-14.73201463 46.64324391 -14.64736594 48.04037857 -14.5625 49.4375 C-14.52318359 50.14455078 -14.48386719 50.85160156 -14.44335938 51.58007812 C-14.52375562 55.08690419 -14.52375562 55.08690419 -13 58 C-13.33 52.39 -13.66 46.78 -14 41 C-14.66 40.67 -15.32 40.34 -16 40 C-14.68 36.7 -13.36 33.4 -12 30 C-13.98 29.34 -15.96 28.68 -18 28 C-18.10815225 26.23050905 -18.18566083 24.45912513 -18.25 22.6875 C-18.29640625 21.70136719 -18.3428125 20.71523437 -18.390625 19.69921875 C-18 17 -18 17 -16.1875 15.15625 C-13.3469377 13.65480993 -11.1648567 13.78421432 -8 14 C-8.515625 13.4225 -9.03125 12.845 -9.5625 12.25 C-11 10 -11 10 -10.875 8 C-9.87137069 5.70599014 -8.58559997 3.93029562 -7 2 C-3.89253951 8.9166056 -3.89697928 13.75289981 -6 21 C-5.01 20.34 -4.02 19.68 -3 19 C-2.34 18.67 -1.68 18.34 -1 18 C-0.505 16.515 -0.505 16.515 0 15 C0.66 15.33 1.32 15.66 2 16 C2.66 12.37 3.32 8.74 4 5 C3.01 5 2.02 5 1 5 C1 5.66 1 6.32 1 7 C0.34 7 -0.32 7 -1 7 C-1.495 5.02 -1.495 5.02 -2 3 C-1.34 3 -0.68 3 0 3 C0 2.01 0 1.02 0 0 Z " fill="#DBD5CF" transform="translate(209,168)"/>
<path d="M0 0 C2 2 2 2 2 6 C2.83144531 5.97679687 3.66289062 5.95359375 4.51953125 5.9296875 C5.60621094 5.91164062 6.69289062 5.89359375 7.8125 5.875 C8.89144531 5.85179687 9.97039062 5.82859375 11.08203125 5.8046875 C14 6 14 6 17 8 C12.05 7.67 7.1 7.34 2 7 C1.67 8.98 1.34 10.96 1 13 C0.01 14.485 0.01 14.485 -1 16 C-0.09507812 15.65775391 -0.09507812 15.65775391 0.828125 15.30859375 C1.62734375 15.02113281 2.4265625 14.73367187 3.25 14.4375 C4.03890625 14.14746094 4.8278125 13.85742188 5.640625 13.55859375 C8 13 8 13 12 14 C8.7 14.99 5.4 15.98 2 17 C5.3 17.33 8.6 17.66 12 18 C12 18.33 12 18.66 12 19 C10.35 19 8.7 19 7 19 C7 19.66 7 20.32 7 21 C5.35 21 3.7 21 2 21 C3.47409152 23.22845348 3.47409152 23.22845348 6 25 C10.35256969 25.25397288 13.3824994 24.41166706 17 22 C15.63016497 25.16115776 15.0109362 25.9927092 12 28 C13.03512698 30.79188534 13.72121959 31.84043184 16.34765625 33.34375 C18.15975665 34.11552226 19.97225811 34.88635351 21.78515625 35.65625 C24 37 24 37 24.74609375 38.96875 C24.82988281 39.6390625 24.91367188 40.309375 25 41 C25.33 41.99 25.66 42.98 26 44 C26.99 44.495 26.99 44.495 28 45 C27.34 45 26.68 45 26 45 C25.67 45.99 25.34 46.98 25 48 C24.360625 47.030625 23.72125 46.06125 23.0625 45.0625 C21.3034741 42.23963731 21.3034741 42.23963731 20 41 C18.0549 43.91765 17.54723683 45.62537285 17 49 C16.67 49 16.34 49 16 49 C15.89042969 48.09636719 15.78085938 47.19273437 15.66796875 46.26171875 C15.43013672 44.49248047 15.43013672 44.49248047 15.1875 42.6875 C15.03667969 41.51574219 14.88585937 40.34398437 14.73046875 39.13671875 C14.00135005 36.00579726 13.50828536 34.90354807 11 33 C11.02320313 33.90363281 11.04640625 34.80726563 11.0703125 35.73828125 C11.08835938 36.91777344 11.10640625 38.09726562 11.125 39.3125 C11.14820313 40.48425781 11.17140625 41.65601563 11.1953125 42.86328125 C11 46 11 46 9 49 C0.33805143 50.19475153 -4.37476204 45.99824368 -11 41 C-11.96099609 41.54140625 -11.96099609 41.54140625 -12.94140625 42.09375 C-18.25779915 44.94606214 -21.95251548 46.65733527 -28 46 C-28.33 44.68 -28.66 43.36 -29 42 C-28.34 42 -27.68 42 -27 42 C-26.9175 41.236875 -26.835 40.47375 -26.75 39.6875 C-25.85384206 36.47626739 -24.78388975 35.70625501 -22 34 C-22.33 32.68 -22.66 31.36 -23 30 C-22.34 29.67 -21.68 29.34 -21 29 C-21.33 28.34 -21.66 27.68 -22 27 C-21.195625 26.54625 -20.39125 26.0925 -19.5625 25.625 C-16.91143428 24.25274335 -16.91143428 24.25274335 -16 22 C-19.96 22.495 -19.96 22.495 -24 23 C-22 21 -22 21 -19.375 20.875 C-18.59125 20.91625 -17.8075 20.9575 -17 21 C-17 20.01 -17 19.02 -17 18 C-17.66 17.67 -18.32 17.34 -19 17 C-18.67 15.35 -18.34 13.7 -18 12 C-17.236875 12.680625 -16.47375 13.36125 -15.6875 14.0625 C-14.800625 14.701875 -13.91375 15.34125 -13 16 C-12.01 15.67 -11.02 15.34 -10 15 C-9.67 14.34 -9.34 13.68 -9 13 C-7.68 13 -6.36 13 -5 13 C-4.731875 12.0925 -4.46375 11.185 -4.1875 10.25 C-3.09324505 7.25519697 -1.89204417 5.49405822 0 3 C0 2.01 0 1.02 0 0 Z " fill="#CDC8C2" transform="translate(221,240)"/>
<path d="M0 0 C-1.051875 1.0209375 -1.051875 1.0209375 -2.125 2.0625 C-3.08833265 3.0367486 -4.04625047 4.01636797 -5 5 C-5.50402344 5.51949219 -6.00804687 6.03898438 -6.52734375 6.57421875 C-19.11954305 20.31990196 -19.60154284 41.40274746 -21 59 C-27.93 59 -34.86 59 -42 59 C-42.72586726 42.66798669 -38.27314188 26.91612021 -28 14 C-21.82344576 7.29543019 -9.63857673 -2.99128243 0 0 Z " fill="#030303" transform="translate(250,160)"/>
<path d="M0 0 C0.33 0 0.66 0 1 0 C1.12117188 1.05960938 1.24234375 2.11921875 1.3671875 3.2109375 C1.53600752 4.59901324 1.70530308 5.98703119 1.875 7.375 C1.95363281 8.07367188 2.03226563 8.77234375 2.11328125 9.4921875 C2.55220445 13.69072159 2.55220445 13.69072159 5 17 C5.33 13.7 5.66 10.4 6 7 C6.33 7 6.66 7 7 7 C7.91297308 11.97063121 7.91297308 16.02936879 7 21 C10.13961582 22.4336833 10.13961582 22.4336833 13.5 20.3125 C14.1909375 19.94253906 14.881875 19.57257813 15.59375 19.19140625 C19.90172755 17.05839789 24.46229007 15.56817917 29 14 C28.01 13.67 27.02 13.34 26 13 C26 13.66 26 14.32 26 15 C23.36 15 20.72 15 18 15 C18 14.67 18 14.34 18 14 C15.69 13.67 13.38 13.34 11 13 C11 10.03 11 7.06 11 4 C11.33 4 11.66 4 12 4 C12 6.64 12 9.28 12 12 C18.93 12 25.86 12 33 12 C33 8.7 33 5.4 33 2 C33.33 2 33.66 2 34 2 C33.98839844 2.77085937 33.97679687 3.54171875 33.96484375 4.3359375 C33.95582031 5.33882812 33.94679687 6.34171875 33.9375 7.375 C33.92589844 8.37273437 33.91429687 9.37046875 33.90234375 10.3984375 C33.81993398 12.98432453 33.81993398 12.98432453 35 15 C34.443125 15.23074219 33.88625 15.46148437 33.3125 15.69921875 C28.44936331 17.7775525 24.130588 20.06597378 19.82421875 23.14453125 C17.49622149 24.23624731 16.36890556 23.85238765 14 23 C13.03644756 24.07869393 12.07938583 25.16318743 11.125 26.25 C10.59132812 26.85328125 10.05765625 27.4565625 9.5078125 28.078125 C6.70772686 31.64714608 5.74122583 34.20167836 5.875 38.75 C5.89304688 39.54921875 5.91109375 40.3484375 5.9296875 41.171875 C5.95289063 41.77515625 5.97609375 42.3784375 6 43 C5.01 42.67 4.02 42.34 3 42 C3.33 41.01 3.66 40.02 4 39 C-0.29 39 -4.58 39 -9 39 C-5.68629 36.79086 -4.6553979 36.77518447 -0.8125 36.875 C0.08855469 36.89304688 0.98960937 36.91109375 1.91796875 36.9296875 C2.60503906 36.95289063 3.29210937 36.97609375 4 37 C4.144375 36.05125 4.28875 35.1025 4.4375 34.125 C5 31 5 31 6 29 C5.34 29 4.68 29 4 29 C3.67 30.98 3.34 32.96 3 35 C2.67 35 2.34 35 2 35 C2 33.02 2 31.04 2 29 C1.071875 29.226875 0.14375 29.45375 -0.8125 29.6875 C-6.04282294 30.46077156 -11.14467085 28.90685072 -16 27 C-16.33 26.34 -16.66 25.68 -17 25 C-16.34 25 -15.68 25 -15 25 C-15.33 24.34 -15.66 23.68 -16 23 C-16.886875 23.103125 -17.77375 23.20625 -18.6875 23.3125 C-23.00684858 22.90501428 -24.25642975 21.2277297 -27 18 C-25.35 17.01 -23.7 16.02 -22 15 C-22.66 13.35 -23.32 11.7 -24 10 C-23 9 -23 9 -20.29296875 8.7578125 C-16.5568985 9.03258872 -14.52991921 9.99929396 -11.3125 11.875 C-10.38050781 12.40867188 -9.44851562 12.94234375 -8.48828125 13.4921875 C-6.63141941 14.61738164 -4.8065262 15.7956492 -3 17 C-3.09539062 16.15695313 -3.19078125 15.31390625 -3.2890625 14.4453125 C-3.39992187 13.34960938 -3.51078125 12.25390625 -3.625 11.125 C-3.79902344 9.48917969 -3.79902344 9.48917969 -3.9765625 7.8203125 C-3.98429687 6.88960937 -3.99203125 5.95890625 -4 5 C-3.34 4.34 -2.68 3.68 -2 3 C-1.93941406 4.07121094 -1.87882812 5.14242187 -1.81640625 6.24609375 C-1.73201463 7.64324391 -1.64736594 9.04037857 -1.5625 10.4375 C-1.52318359 11.14455078 -1.48386719 11.85160156 -1.44335938 12.58007812 C-1.52375562 16.08690419 -1.52375562 16.08690419 0 19 C0 12.73 0 6.46 0 0 Z " fill="#65625E" transform="translate(196,207)"/>
<path d="M0 0 C4.64317964 0.80362724 6.34751886 1.19298386 9.375 4.9375 C11.71734026 9.66222052 11.81232905 14.81089812 12 20 C11.35933594 20.12375 10.71867187 20.2475 10.05859375 20.375 C9.37925781 20.58125 8.69992188 20.7875 8 21 C7.690625 21.66 7.38125 22.32 7.0625 23 C6.5365625 23.99 6.5365625 23.99 6 25 C3.625 25.625 3.625 25.625 1 26 C-1.23408113 26.99083967 -1.23408113 26.99083967 -3 28 C-4.32 26.68 -5.64 25.36 -7 24 C-7.33 25.32 -7.66 26.64 -8 28 C-6.68 28.66 -5.36 29.32 -4 30 C-4.66 30 -5.32 30 -6 30 C-6 30.66 -6 31.32 -6 32 C-9.465 32.495 -9.465 32.495 -13 33 C-13.103125 33.598125 -13.20625 34.19625 -13.3125 34.8125 C-14.09824033 37.31258286 -14.96918853 38.37535082 -17 40 C-17.66 40 -18.32 40 -19 40 C-19.33 41.32 -19.66 42.64 -20 44 C-20.20140476 40.37471432 -19.85776765 38.13498292 -18 35 C-19.11375 34.7215625 -19.11375 34.7215625 -20.25 34.4375 C-24.2277396 32.35822703 -25.08794536 30.03655979 -27 26 C-27 25.01 -27 24.02 -27 23 C-26.37351563 22.93941406 -25.74703125 22.87882812 -25.1015625 22.81640625 C-23.87566406 22.69072266 -23.87566406 22.69072266 -22.625 22.5625 C-21.81289062 22.48128906 -21.00078125 22.40007812 -20.1640625 22.31640625 C-17.95727195 22.10909886 -17.95727195 22.10909886 -16 21 C-13.37886292 21 -11.49064888 21.31292445 -9 22 C-9.06960937 21.38253906 -9.13921875 20.76507813 -9.2109375 20.12890625 C-9.63023938 13.56982688 -8.31881721 9.93786557 -4.5078125 4.6171875 C-3.76144531 3.81667969 -3.76144531 3.81667969 -3 3 C-2.34 3 -1.68 3 -1 3 C-0.67 2.01 -0.34 1.02 0 0 Z " fill="#D8D3CC" transform="translate(210,229)"/>
<path d="M0 0 C12.03753655 -0.49132802 24.52844194 -0.98103871 35 6 C35 6.66 35 7.32 35 8 C35.598125 8.226875 36.19625 8.45375 36.8125 8.6875 C39.76738497 10.46043098 40.64499863 11.81574678 42 15 C42.67059173 19.45175955 42.60014305 22.84972582 40.5 26.875 C35.82619673 30.84773278 31.08599572 32.20110247 25 32 C24.97421875 31.26136719 24.9484375 30.52273437 24.921875 29.76171875 C24.48662091 21.97660581 23.72723655 13.5259301 18.578125 7.2734375 C12.97657378 2.33598771 7.14235864 1.59130638 0 1 C0 0.67 0 0.34 0 0 Z " fill="#030303" transform="translate(259,158)"/>
<path d="M0 0 C4.13863439 3.38615541 5.57229405 4.67603305 6.1875 10.125 C6.01938427 14.4159538 4.56127294 16.97018157 1.75 20.25 C-2.66112805 22.99637397 -7.20756262 22.92014565 -12.25 22.25 C-15.74996383 20.20835443 -18.05555258 18.15910064 -19.25 14.25 C-19.78213468 9.53680711 -20.01096102 6.65491414 -17 2.875 C-11.74651356 -2.1396916 -6.79283809 -3.65768205 0 0 Z " fill="#E5DFD8" transform="translate(368.25,315.75)"/>
<path d="M0 0 C0.33 0.99 0.66 1.98 1 3 C2.32 3.33 3.64 3.66 5 4 C4.67 7.3 4.34 10.6 4 14 C4.99 14.33 5.98 14.66 7 15 C5.68 18.63 4.36 22.26 3 26 C2.67 25.01 2.34 24.02 2 23 C-0.64 23.66 -3.28 24.32 -6 25 C-5.67 25.99 -5.34 26.98 -5 28 C-5.33 28.66 -5.66 29.32 -6 30 C-7.32 30 -8.64 30 -10 30 C-9.34 30.66 -8.68 31.32 -8 32 C-8.66 32 -9.32 32 -10 32 C-9.67 33.65 -9.34 35.3 -9 37 C-10.485 37.495 -10.485 37.495 -12 38 C-12.98120464 34.94736336 -12.98120464 33.05263664 -12 30 C-13.98 29.34 -15.96 28.68 -18 28 C-18.10815225 26.23050905 -18.18566083 24.45912513 -18.25 22.6875 C-18.31960937 21.20830078 -18.31960937 21.20830078 -18.390625 19.69921875 C-18 17 -18 17 -16.1875 15.15625 C-13.3469377 13.65480993 -11.1648567 13.78421432 -8 14 C-8.515625 13.4225 -9.03125 12.845 -9.5625 12.25 C-11 10 -11 10 -10.875 8 C-9.87137069 5.70599014 -8.58559997 3.93029562 -7 2 C-3.89253951 8.9166056 -3.89697928 13.75289981 -6 21 C-5.01 20.34 -4.02 19.68 -3 19 C-2.34 18.67 -1.68 18.34 -1 18 C-0.67 17.01 -0.34 16.02 0 15 C0.66 15.33 1.32 15.66 2 16 C2.66 12.37 3.32 8.74 4 5 C3.01 5 2.02 5 1 5 C1 5.66 1 6.32 1 7 C0.34 7 -0.32 7 -1 7 C-1.33 5.68 -1.66 4.36 -2 3 C-1.34 3 -0.68 3 0 3 C0 2.01 0 1.02 0 0 Z " fill="#D2CDC6" transform="translate(209,168)"/>
<path d="M0 0 C1 2 1 2 1 5 C1.99 5.33 2.98 5.66 4 6 C4.66 4.68 5.32 3.36 6 2 C6.66 2 7.32 2 8 2 C8 1.34 8 0.68 8 0 C11.69418201 1.231394 13.35109746 3.20791354 16 6 C15.67 6.66 15.34 7.32 15 8 C12.69 7.01 10.38 6.02 8 5 C9.0209375 6.670625 9.0209375 6.670625 10.0625 8.375 C11.22265625 10.2734375 11.22265625 10.2734375 12 12 C11.67 12.66 11.34 13.32 11 14 C10.01 14 9.02 14 8 14 C7.67 15.65 7.34 17.3 7 19 C4.27573689 16.64722731 3.1858237 14.37503669 2 11 C0.98048793 13.78998303 0.98048793 13.78998303 0.6875 15.9375 C-0.53142842 19.59428527 -2.99605664 21.45732792 -6.3125 23.25 C-9.61694262 24.17217003 -12.58621148 24.13387406 -16 24 C-16.33 22.68 -16.66 21.36 -17 20 C-16.34 20 -15.68 20 -15 20 C-14.9175 19.236875 -14.835 18.47375 -14.75 17.6875 C-13.85384206 14.47626739 -12.78388975 13.70625501 -10 12 C-10.33 10.68 -10.66 9.36 -11 8 C-10.34 7.67 -9.68 7.34 -9 7 C-9.33 6.34 -9.66 5.68 -10 5 C-7.6875 3.4375 -7.6875 3.4375 -5 2 C-4.01 2.33 -3.02 2.66 -2 3 C-2.33 3.99 -2.66 4.98 -3 6 C-2.01 4.02 -1.02 2.04 0 0 Z " fill="#CEC9C2" transform="translate(209,262)"/>
<path d="M0 0 C2 2 2 2 2 6 C2.83144531 5.97679687 3.66289062 5.95359375 4.51953125 5.9296875 C5.60621094 5.91164062 6.69289062 5.89359375 7.8125 5.875 C8.89144531 5.85179687 9.97039062 5.82859375 11.08203125 5.8046875 C14 6 14 6 17 8 C12.05 7.67 7.1 7.34 2 7 C1.67 8.98 1.34 10.96 1 13 C0.01 14.485 0.01 14.485 -1 16 C-0.09507812 15.65775391 -0.09507812 15.65775391 0.828125 15.30859375 C1.62734375 15.02113281 2.4265625 14.73367187 3.25 14.4375 C4.03890625 14.14746094 4.8278125 13.85742188 5.640625 13.55859375 C8 13 8 13 12 14 C8.7 14.99 5.4 15.98 2 17 C5.3 17.33 8.6 17.66 12 18 C12 18.33 12 18.66 12 19 C10.35 19 8.7 19 7 19 C7 19.66 7 20.32 7 21 C5.35 21 3.7 21 2 21 C2.33 21.99 2.66 22.98 3 24 C-1.75 23.125 -1.75 23.125 -4 22 C-4 22.66 -4 23.32 -4 24 C-4.66 24 -5.32 24 -6 24 C-6.99 26.475 -6.99 26.475 -8 29 C-9.65 28.67 -11.3 28.34 -13 28 C-13 27.34 -13 26.68 -13 26 C-13.66 26.99 -14.32 27.98 -15 29 C-15.66 28.67 -16.32 28.34 -17 28 C-16.34 27.01 -15.68 26.02 -15 25 C-15.33 24.01 -15.66 23.02 -16 22 C-19.96 22.495 -19.96 22.495 -24 23 C-22 21 -22 21 -19.375 20.875 C-18.59125 20.91625 -17.8075 20.9575 -17 21 C-17 20.01 -17 19.02 -17 18 C-17.66 17.67 -18.32 17.34 -19 17 C-18.67 15.35 -18.34 13.7 -18 12 C-17.236875 12.680625 -16.47375 13.36125 -15.6875 14.0625 C-14.800625 14.701875 -13.91375 15.34125 -13 16 C-12.01 15.67 -11.02 15.34 -10 15 C-9.67 14.34 -9.34 13.68 -9 13 C-7.68 13 -6.36 13 -5 13 C-4.731875 12.0925 -4.46375 11.185 -4.1875 10.25 C-3.09324505 7.25519697 -1.89204417 5.49405822 0 3 C0 2.01 0 1.02 0 0 Z " fill="#56534F" transform="translate(221,240)"/>
<path d="M0 0 C0.33 0 0.66 0 1 0 C1.06058594 0.62648437 1.12117188 1.25296875 1.18359375 1.8984375 C1.26738281 2.71570313 1.35117187 3.53296875 1.4375 4.375 C1.55931641 5.59316406 1.55931641 5.59316406 1.68359375 6.8359375 C1.89090114 9.04272805 1.89090114 9.04272805 3 11 C2.34 11 1.68 11 1 11 C1 11.66 1 12.32 1 13 C5.455 12.505 5.455 12.505 10 12 C9.34 12.66 8.68 13.32 8 14 C10.475 14.495 10.475 14.495 13 15 C14.99851462 10.8780636 15.25785684 7.55547083 15 3 C14.67 2.34 14.34 1.68 14 1 C14.99 1.33 15.98 1.66 17 2 C17.93608986 6.36841936 17.90866394 9.63841308 17 14 C16.9175 15.03125 16.835 16.0625 16.75 17.125 C15.76578821 20.89781186 14.14932398 21.80279722 11 24 C10.0409375 25.0828125 10.0409375 25.0828125 9.0625 26.1875 C6.44908211 28.48413997 4.41079876 28.68992739 1 29 C0.08941469 25.92677456 -0.08886184 23.19902639 0 20 C-0.99 19.67 -1.98 19.34 -3 19 C-3 17.68 -3 16.36 -3 15 C-5.64 14.67 -8.28 14.34 -11 14 C-11 12 -11 12 -9 10 C-9.33 9.34 -9.66 8.68 -10 8 C-9.34 8 -8.68 8 -8 8 C-7.34 7.34 -6.68 6.68 -6 6 C-6 7.65 -6 9.3 -6 11 C-5.01 11 -4.02 11 -3 11 C-3 8.36 -3 5.72 -3 3 C-2.34 3.66 -1.68 4.32 -1 5 C-0.67 3.35 -0.34 1.7 0 0 Z " fill="#DDD7D0" transform="translate(305,152)"/>
<path d="M0 0 C2.64 0 5.28 0 8 0 C10.31 5.61 12.62 11.22 15 17 C17.2589703 12.15370579 17.2589703 12.15370579 19.51733398 7.30712891 C21.88888889 2.22222222 21.88888889 2.22222222 23 0 C25.31 0 27.62 0 30 0 C30 0.66 30 1.32 30 2 C29.01 2.495 29.01 2.495 28 3 C27.94208156 6.12492251 27.90643254 9.24970766 27.875 12.375 C27.85824219 13.26445312 27.84148437 14.15390625 27.82421875 15.0703125 C27.81777344 15.92109375 27.81132812 16.771875 27.8046875 17.6484375 C27.79421387 18.43395996 27.78374023 19.21948242 27.77294922 20.02880859 C27.82009873 22.234465 27.82009873 22.234465 30 24 C27.03 24 24.06 24 21 24 C21.66 23.34 22.32 22.68 23 22 C23.14547834 19.41048555 23.18649052 16.95814609 23.125 14.375 C23.08375 11.94125 23.0425 9.5075 23 7 C20.36 12.61 17.72 18.22 15 24 C11.82804736 20.82804736 10.46025649 17.86882893 8.8125 13.8125 C8.53986328 13.15830078 8.26722656 12.50410156 7.98632812 11.83007812 C7.31760202 10.22278908 6.65790075 8.61175038 6 7 C5.94616152 9.45862401 5.90640962 11.9160755 5.875 14.375 C5.85824219 15.07367188 5.84148437 15.77234375 5.82421875 16.4921875 C5.80655733 18.32897486 5.89696739 20.16601963 6 22 C6.66 22.66 7.32 23.32 8 24 C5.36 24 2.72 24 0 24 C0.66 23.34 1.32 22.68 2 22 C2.36952049 19.87139338 2.36952049 19.87139338 2.4140625 17.4296875 C2.45273438 16.53378906 2.49140625 15.63789063 2.53125 14.71484375 C2.5621875 13.77769531 2.593125 12.84054687 2.625 11.875 C2.66367188 10.93011719 2.70234375 9.98523438 2.7421875 9.01171875 C2.83661346 6.67467625 2.92218394 4.33764499 3 2 C2.01 2 1.02 2 0 2 C0 1.34 0 0.68 0 0 Z " fill="#1C1B1A" transform="translate(199,314)"/>
<path d="M0 0 C0.495 1.485 0.495 1.485 1 3 C0.690625 3.556875 0.38125 4.11375 0.0625 4.6875 C-1.53065326 8.15495121 -1.12648259 11.2055224 -1 15 C-1.1546875 14.0409375 -1.1546875 14.0409375 -1.3125 13.0625 C-1.539375 12.381875 -1.76625 11.70125 -2 11 C-2.99 10.67 -3.98 10.34 -5 10 C-5 9.67 -5 9.34 -5 9 C-7.31 9 -9.62 9 -12 9 C-11.34 9.66 -10.68 10.32 -10 11 C-10.99 11.33 -11.98 11.66 -13 12 C-10.03 12.33 -7.06 12.66 -4 13 C-4 13.33 -4 13.66 -4 14 C-4.69867188 14.06058594 -5.39734375 14.12117187 -6.1171875 14.18359375 C-7.02726562 14.26738281 -7.93734375 14.35117188 -8.875 14.4375 C-9.77992188 14.51871094 -10.68484375 14.59992188 -11.6171875 14.68359375 C-14.01110861 14.86989285 -14.01110861 14.86989285 -16 16 C-15.34 16.99 -14.68 17.98 -14 19 C-14.92619141 18.7834375 -14.92619141 18.7834375 -15.87109375 18.5625 C-21.51544533 17.32538185 -27.21290769 16.19525097 -33 17 C-33.99 17.66 -34.98 18.32 -36 19 C-38.77734375 19.16015625 -38.77734375 19.16015625 -41.9375 19.0625 C-45.51042986 18.96066929 -48.57226264 18.93451056 -52 20 C-51.505 18.515 -51.505 18.515 -51 17 C-48.29120665 15.64560332 -45.99066732 15.93498549 -43 16 C-42.67 14.02 -42.34 12.04 -42 10 C-41.67 10 -41.34 10 -41 10 C-41 11.65 -41 13.3 -41 15 C-34.565 14.505 -34.565 14.505 -28 14 C-28 13.34 -28 12.68 -28 12 C-29.11375 11.8453125 -29.11375 11.8453125 -30.25 11.6875 C-33.17014018 10.95746496 -34.73187554 9.93210602 -37 8 C-36.67 7.34 -36.34 6.68 -36 6 C-34.02 6.66 -32.04 7.32 -30 8 C-30 8.66 -30 9.32 -30 10 C-27.36 9.67 -24.72 9.34 -22 9 C-22.33 7.02 -22.66 5.04 -23 3 C-22.34 3.33 -21.68 3.66 -21 4 C-21 5.32 -21 6.64 -21 8 C-19.68 8.33 -18.36 8.66 -17 9 C-16.34 7.35 -15.68 5.7 -15 4 C-14.34 4.66 -13.68 5.32 -13 6 C-11.02 5.01 -9.04 4.02 -7 3 C-7.33 3.99 -7.66 4.98 -8 6 C-6.35 6 -4.7 6 -3 6 C-2.01 4.02 -1.02 2.04 0 0 Z " fill="#6F6C68" transform="translate(301,142)"/>
<path d="M0 0 C1.9375 0.5625 1.9375 0.5625 4 2 C5.14517351 5.36815738 5.53334482 7.70822906 4.1484375 11.0625 C-1.13147958 20.05539103 -8.35484992 23.70371866 -18 27 C-25.23397528 28.51680127 -32.63305064 28.09312155 -40 28 C-40 28.66 -40 29.32 -40 30 C-44.75 29.25 -44.75 29.25 -47 27 C-46.625 24.875 -46.625 24.875 -46 23 C-44.96875 23.33 -43.9375 23.66 -42.875 24 C-32.43714622 26.54942269 -22.67649006 25.49382759 -13 21 C-12.28070313 20.70867187 -11.56140625 20.41734375 -10.8203125 20.1171875 C-8.50556457 18.69654821 -8.03311068 17.48926238 -7 15 C-6.5978125 14.20722656 -6.195625 13.41445313 -5.78125 12.59765625 C-5.3584375 11.76105469 -4.935625 10.92445313 -4.5 10.0625 C-4.0771875 9.22847656 -3.654375 8.39445312 -3.21875 7.53515625 C-2.02861707 5.05952718 -0.98976252 2.56146874 0 0 Z " fill="#0C0C0C" transform="translate(296,258)"/>
<path d="M0 0 C2.97 0 5.94 0 9 0 C9 0.66 9 1.32 9 2 C8.01 2 7.02 2 6 2 C6 4.97 6 7.94 6 11 C9.96 11 13.92 11 18 11 C18 8.03 18 5.06 18 2 C17.01 2 16.02 2 15 2 C15 1.34 15 0.68 15 0 C18.3 0 21.6 0 25 0 C25 0.66 25 1.32 25 2 C24.01 2 23.02 2 22 2 C22.10959718 5.29237055 22.24028931 8.58356887 22.375 11.875 C22.4059375 12.81214844 22.436875 13.74929688 22.46875 14.71484375 C22.50742188 15.61074219 22.54609375 16.50664062 22.5859375 17.4296875 C22.63306885 18.67081299 22.63306885 18.67081299 22.68115234 19.93701172 C22.82599137 22.21986085 22.82599137 22.21986085 25 24 C21.7 24 18.4 24 15 24 C15.66 23.34 16.32 22.68 17 22 C17.46006346 19.79749008 17.46006346 19.79749008 17.625 17.375 C17.74875 15.93125 17.8725 14.4875 18 13 C14.04 13 10.08 13 6 13 C6.12375 14.44375 6.2475 15.8875 6.375 17.375 C6.47941406 18.59316406 6.47941406 18.59316406 6.5859375 19.8359375 C6.82892588 22.20334191 6.82892588 22.20334191 9 24 C5.7 24 2.4 24 -1 24 C-0.01 23.34 0.98 22.68 2 22 C2.41480107 19.97112689 2.41480107 19.97112689 2.29296875 17.6484375 C2.28330078 16.79765625 2.27363281 15.946875 2.26367188 15.0703125 C2.23853516 14.18085938 2.21339844 13.29140625 2.1875 12.375 C2.17396484 11.4778125 2.16042969 10.580625 2.14648438 9.65625 C2.11106925 7.43690211 2.06168461 5.21874812 2 3 C1.34 2.67 0.68 2.34 0 2 C0 1.34 0 0.68 0 0 Z " fill="#2D2C2B" transform="translate(123,314)"/>
<path d="M0 0 C0.78375 0.185625 1.5675 0.37125 2.375 0.5625 C4.97089775 1.25962266 4.97089775 1.25962266 7 0 C7.99 0 8.98 0 10 0 C10.93423645 3.01031744 11.04449911 3.86650268 10 7 C11.32 7.66 12.64 8.32 14 9 C13.34 9 12.68 9 12 9 C12 9.66 12 10.32 12 11 C9.69 11.33 7.38 11.66 5 12 C4.8453125 12.8971875 4.8453125 12.8971875 4.6875 13.8125 C3.90175967 16.31258286 3.03081147 17.37535082 1 19 C0.34 19 -0.32 19 -1 19 C-1.33 20.32 -1.66 21.64 -2 23 C-2.20140476 19.37471432 -1.85776765 17.13498292 0 14 C-0.7425 13.814375 -1.485 13.62875 -2.25 13.4375 C-6.2277396 11.35822703 -7.08794536 9.03655979 -9 5 C-9 4.01 -9 3.02 -9 2 C-4.545 1.505 -4.545 1.505 0 1 C0 0.67 0 0.34 0 0 Z " fill="#E6E0DA" transform="translate(192,250)"/>
<path d="M0 0 C0.33 1.65 0.66 3.3 1 5 C1.66 5 2.32 5 3 5 C3.1953125 7.05078125 3.390625 9.1015625 3.5859375 11.15234375 C3.72257812 11.76207031 3.85921875 12.37179688 4 13 C4.66 13.33 5.32 13.66 6 14 C5.01 14 4.02 14 3 14 C3 15.65 3 17.3 3 19 C2.13375 18.814375 1.2675 18.62875 0.375 18.4375 C-3.05152628 17.99332067 -5.64212371 18.28045508 -9 19 C-8.67 16.69 -8.34 14.38 -8 12 C-8.66 12 -9.32 12 -10 12 C-10.33 10.68 -10.66 9.36 -11 8 C-11.66 8 -12.32 8 -13 8 C-13.375 5.75 -13.375 5.75 -13 3 C-8.58399817 -1.09287974 -5.7565815 -1.38157956 0 0 Z " fill="#C5C0BA" transform="translate(314,147)"/>
<path d="M0 0 C2.6015625 -0.5 2.6015625 -0.5 6 0 C8.54901966 2.36003267 10.41978912 5.14201274 12.375 8 C12.92027344 8.763125 13.46554687 9.52625 14.02734375 10.3125 C15.36923962 12.19586263 16.68700805 14.09637413 18 16 C18.33 11.38 18.66 6.76 19 2 C18.34 2 17.68 2 17 2 C17 1.34 17 0.68 17 0 C19.64 0 22.28 0 25 0 C25 0.66 25 1.32 25 2 C24.01 2.33 23.02 2.66 22 3 C21.67 9.93 21.34 16.86 21 24 C17.31428349 22.15714175 16.41201249 21.6263985 14.203125 18.5234375 C13.71972656 17.853125 13.23632812 17.1828125 12.73828125 16.4921875 C12.24714844 15.79351562 11.75601562 15.09484375 11.25 14.375 C10.74339844 13.66859375 10.23679687 12.9621875 9.71484375 12.234375 C8.46903793 10.494948 7.2335037 8.74817248 6 7 C5.94616152 9.45862401 5.90640962 11.9160755 5.875 14.375 C5.85824219 15.07367188 5.84148437 15.77234375 5.82421875 16.4921875 C5.80655733 18.32897486 5.89696739 20.16601963 6 22 C6.66 22.66 7.32 23.32 8 24 C5.36 24 2.72 24 0 24 C0.66 23.34 1.32 22.68 2 22 C2.27686065 19.96532566 2.27686065 19.96532566 2.1953125 17.6484375 C2.18886719 16.79765625 2.18242187 15.946875 2.17578125 15.0703125 C2.15902344 14.18085938 2.14226562 13.29140625 2.125 12.375 C2.11597656 11.4778125 2.10695313 10.580625 2.09765625 9.65625 C2.0740497 7.43723414 2.0411231 5.21874923 2 3 C1.34 2.67 0.68 2.34 0 2 C0 1.34 0 0.68 0 0 Z " fill="#151514" transform="translate(390,314)"/>
<path d="M0 0 C3.81239899 0.28772823 6.06854442 1.2593909 9.3125 3.25 C10.3025 4.735 10.3025 4.735 11.3125 6.25 C10.9825 7.57 10.6525 8.89 10.3125 10.25 C13.7775 12.725 13.7775 12.725 17.3125 15.25 C16.3225 15.58 15.3325 15.91 14.3125 16.25 C13.3225 15.59 12.3325 14.93 11.3125 14.25 C11.3125 14.91 11.3125 15.57 11.3125 16.25 C9.3325 16.58 7.3525 16.91 5.3125 17.25 C4.9825 16.26 4.6525 15.27 4.3125 14.25 C3.425625 14.353125 2.53875 14.45625 1.625 14.5625 C-2.69434858 14.15501428 -3.94392975 12.4777297 -6.6875 9.25 C-5.0375 8.26 -3.3875 7.27 -1.6875 6.25 C-2.3475 4.6 -3.0075 2.95 -3.6875 1.25 C-2.6875 0.25 -2.6875 0.25 0 0 Z " fill="#BEB9B3" transform="translate(175.6875,215.75)"/>
<path d="M0 0 C4.13863439 3.38615541 5.57229405 4.67603305 6.1875 10.125 C6.01938427 14.4159538 4.56127294 16.97018157 1.75 20.25 C-2.66112805 22.99637397 -7.20756262 22.92014565 -12.25 22.25 C-15.74996383 20.20835443 -18.05555258 18.15910064 -19.25 14.25 C-19.78213468 9.53680711 -20.01096102 6.65491414 -17 2.875 C-11.74651356 -2.1396916 -6.79283809 -3.65768205 0 0 Z M-13.1875 2.125 C-16.09007863 6.52284642 -16.12384229 10.12457889 -15.25 15.25 C-14.05400957 18.51723977 -14.05400957 18.51723977 -11.25 20.25 C-8.09591878 20.9444766 -5.40408122 20.9444766 -2.25 20.25 C0.73167275 18.06828823 1.53917588 16.48656455 2.15625 12.8671875 C2.42468019 8.37098183 2.20790143 5.94379004 -0.3125 2.125 C-5.09952385 -0.93054714 -8.40047615 -0.93054714 -13.1875 2.125 Z " fill="#1A1A19" transform="translate(368.25,315.75)"/>
<path d="M0 0 C0.66 0 1.32 0 2 0 C2.2266333 0.62044189 2.4532666 1.24088379 2.68676758 1.88012695 C3.72012795 4.69414399 4.76614702 7.50328962 5.8125 10.3125 C6.34713867 11.77719727 6.34713867 11.77719727 6.89257812 13.27148438 C7.24384766 14.20927734 7.59511719 15.14707031 7.95703125 16.11328125 C8.43619995 17.40939331 8.43619995 17.40939331 8.92504883 18.73168945 C10.00699343 21.34316427 10.00699343 21.34316427 13 24 C9.7 24 6.4 24 3 24 C3.66 22.68 4.32 21.36 5 20 C4.67 19.01 4.34 18.02 4 17 C1.03 16.67 -1.94 16.34 -5 16 C-5.33 18.31 -5.66 20.62 -6 23 C-5.34 23.33 -4.68 23.66 -4 24 C-6.31 24 -8.62 24 -11 24 C-10.69707031 23.42894531 -10.39414063 22.85789062 -10.08203125 22.26953125 C-6.93896154 16.18648249 -4.38405805 10.01309415 -2.015625 3.58984375 C-1 1 -1 1 0 0 Z " fill="#1E1E1D" transform="translate(173,314)"/>
<path d="M0 0 C5.94 0 11.88 0 18 0 C18 1.98 18 3.96 18 6 C17.60167969 5.51917969 17.20335937 5.03835938 16.79296875 4.54296875 C14.56549753 2.62608175 13.21165331 2.52258357 10.3125 2.3125 C8.889375 2.209375 7.46625 2.10625 6 2 C6 4.97 6 7.94 6 11 C9.54518884 9.60240095 9.54518884 9.60240095 13 8 C13 10.64 13 13.28 13 16 C12.5875 15.525625 12.175 15.05125 11.75 14.5625 C9.7995277 12.82100687 8.51147981 12.53446781 6 12 C6.14049518 13.47968324 6.28754826 14.95874516 6.4375 16.4375 C6.51871094 17.26121094 6.59992188 18.08492188 6.68359375 18.93359375 C6.78930815 20.98662025 6.78930815 20.98662025 8 22 C13.14131184 22.52813349 13.14131184 22.52813349 17.4375 20 C17.953125 19.34 18.46875 18.68 19 18 C19 19.98 19 21.96 19 24 C12.73 24 6.46 24 0 24 C0.66 23.34 1.32 22.68 2 22 C2.36952049 19.87139338 2.36952049 19.87139338 2.4140625 17.4296875 C2.45273437 16.53378906 2.49140625 15.63789063 2.53125 14.71484375 C2.5621875 13.77769531 2.593125 12.84054687 2.625 11.875 C2.66367187 10.93011719 2.70234375 9.98523438 2.7421875 9.01171875 C2.83661346 6.67467625 2.92218394 4.33764499 3 2 C2.01 2 1.02 2 0 2 C0 1.34 0 0.68 0 0 Z " fill="#131211" transform="translate(314,314)"/>
<path d="M0 0 C5.94 0 11.88 0 18 0 C18 1.98 18 3.96 18 6 C17.60167969 5.51917969 17.20335937 5.03835938 16.79296875 4.54296875 C14.56549753 2.62608175 13.21165331 2.52258357 10.3125 2.3125 C8.889375 2.209375 7.46625 2.10625 6 2 C6 4.97 6 7.94 6 11 C9.54518884 9.60240095 9.54518884 9.60240095 13 8 C13 10.64 13 13.28 13 16 C12.5875 15.525625 12.175 15.05125 11.75 14.5625 C9.7995277 12.82100687 8.51147981 12.53446781 6 12 C6.14049518 13.47968324 6.28754826 14.95874516 6.4375 16.4375 C6.51871094 17.26121094 6.59992188 18.08492188 6.68359375 18.93359375 C6.78930815 20.98662025 6.78930815 20.98662025 8 22 C13.14131184 22.52813349 13.14131184 22.52813349 17.4375 20 C17.953125 19.34 18.46875 18.68 19 18 C19 19.98 19 21.96 19 24 C12.73 24 6.46 24 0 24 C0.66 23.34 1.32 22.68 2 22 C2.36952049 19.87139338 2.36952049 19.87139338 2.4140625 17.4296875 C2.45273438 16.53378906 2.49140625 15.63789063 2.53125 14.71484375 C2.5621875 13.77769531 2.593125 12.84054687 2.625 11.875 C2.66367188 10.93011719 2.70234375 9.98523438 2.7421875 9.01171875 C2.83661346 6.67467625 2.92218394 4.33764499 3 2 C2.01 2 1.02 2 0 2 C0 1.34 0 0.68 0 0 Z " fill="#131211" transform="translate(245,314)"/>
<path d="M0 0 C0.33 0 0.66 0 1 0 C0.98839844 0.77085937 0.97679687 1.54171875 0.96484375 2.3359375 C0.95582031 3.33882812 0.94679687 4.34171875 0.9375 5.375 C0.92589844 6.37273437 0.91429687 7.37046875 0.90234375 8.3984375 C0.81993398 10.98432453 0.81993398 10.98432453 2 13 C1.443125 13.23074219 0.88625 13.46148437 0.3125 13.69921875 C-4.55063669 15.7775525 -8.869412 18.06597378 -13.17578125 21.14453125 C-15 22 -15 22 -16.87109375 21.484375 C-20.05121088 20.76082541 -21.8712708 22.03240599 -24.75 23.4375 C-25.73484375 23.91058594 -26.7196875 24.38367188 -27.734375 24.87109375 C-28.85585937 25.42990234 -28.85585937 25.42990234 -30 26 C-31.09658936 22.71023192 -30.79953138 21.28696233 -30 18 C-29.34 18.99 -28.68 19.98 -28 21 C-27.401875 20.67 -26.80375 20.34 -26.1875 20 C-24 19 -24 19 -21 19 C-19.02103705 18.26141269 -17.06450181 17.46174267 -15.125 16.625 C-11.4311103 15.04190441 -7.73818832 13.47596366 -4 12 C-4.99 11.67 -5.98 11.34 -7 11 C-7 11.66 -7 12.32 -7 13 C-9.64 13 -12.28 13 -15 13 C-15 12.67 -15 12.34 -15 12 C-17.31 11.67 -19.62 11.34 -22 11 C-22 8.03 -22 5.06 -22 2 C-21.67 2 -21.34 2 -21 2 C-21 4.64 -21 7.28 -21 10 C-14.07 10 -7.14 10 0 10 C0 6.7 0 3.4 0 0 Z " fill="#514E4B" transform="translate(229,209)"/>
<path d="M0 0 C0.33 0.99 0.66 1.98 1 3 C2.32 3.33 3.64 3.66 5 4 C4.67 7.3 4.34 10.6 4 14 C4.99 14.33 5.98 14.66 7 15 C5.68 18.63 4.36 22.26 3 26 C2.67 25.01 2.34 24.02 2 23 C-0.64 23.66 -3.28 24.32 -6 25 C-5.67 25.99 -5.34 26.98 -5 28 C-5.33 28.66 -5.66 29.32 -6 30 C-7.32 30 -8.64 30 -10 30 C-9.34 30.66 -8.68 31.32 -8 32 C-8.66 32 -9.32 32 -10 32 C-9.67 33.65 -9.34 35.3 -9 37 C-10.485 37.495 -10.485 37.495 -12 38 C-12.98120464 34.94736336 -12.98120464 33.05263664 -12 30 C-13.65 29.67 -15.3 29.34 -17 29 C-14.08235 27.0549 -12.37462715 26.54723683 -9 26 C-9 25.34 -9 24.68 -9 24 C-7 22.66666667 -5 21.33333333 -3 20 C-3 19.34 -3 18.68 -3 18 C-2.34 18 -1.68 18 -1 18 C-0.67 17.01 -0.34 16.02 0 15 C0.66 15.33 1.32 15.66 2 16 C2.66 12.37 3.32 8.74 4 5 C3.01 5 2.02 5 1 5 C1 5.66 1 6.32 1 7 C0.34 7 -0.32 7 -1 7 C-1.33 5.68 -1.66 4.36 -2 3 C-1.34 3 -0.68 3 0 3 C0 2.01 0 1.02 0 0 Z " fill="#706D68" transform="translate(209,168)"/>
<path d="M0 0 C5.841744 -0.35050464 9.8531808 -0.16727335 15 3 C13.60701445 6.00131187 11.96044932 8.51057409 9.9375 11.125 C7.76773805 13.93627263 7.76773805 13.93627263 6 17 C4.68 16.67 3.36 16.34 2 16 C2.33 12.7 2.66 9.4 3 6 C1.68 5.67 0.36 5.34 -1 5 C-0.67 3.35 -0.34 1.7 0 0 Z " fill="#B9B4AE" transform="translate(211,166)"/>
<path d="M0 0 C0 1.98 0 3.96 0 6 C-0.515625 5.34 -1.03125 4.68 -1.5625 4 C-3.94087916 1.68459896 -3.94087916 1.68459896 -7.5625 1.5625 C-10.91869174 1.70739127 -10.91869174 1.70739127 -12.875 3.375 C-14.80607048 6.16432403 -15.18301266 8.01446834 -15.25 11.375 C-15.27578125 12.14585937 -15.3015625 12.91671875 -15.328125 13.7109375 C-14.90674494 16.65056504 -14.14655431 17.95080561 -12 20 C-9.49119384 20.48261667 -9.49119384 20.48261667 -6.8125 20.25 C-5.46091797 20.19585937 -5.46091797 20.19585937 -4.08203125 20.140625 C-3.39496094 20.09421875 -2.70789063 20.0478125 -2 20 C-1.34 18.35 -0.68 16.7 0 15 C0.33 15 0.66 15 1 15 C1 17.64 1 20.28 1 23 C0.67 22.34 0.34 21.68 0 21 C-0.56976563 21.32097656 -1.13953125 21.64195312 -1.7265625 21.97265625 C-5.4541069 23.65709642 -8.99564671 23.69279469 -13 23 C-16.57236674 21.0729972 -18.69560702 18.91317895 -20 15 C-20.34231315 9.69414624 -20.53140599 6.26204172 -17 2 C-11.77028298 -2.2128276 -6.23775927 -1.51218406 0 0 Z " fill="#151414" transform="translate(106,315)"/>
<path d="M0 0 C3.3 0 6.6 0 10 0 C10 0.66 10 1.32 10 2 C9.01 2 8.02 2 7 2 C7.33 8.27 7.66 14.54 8 21 C10.97 21 13.94 21 17 21 C17.99 20.01 18.98 19.02 20 18 C20 19.98 20 21.96 20 24 C13.4 24 6.8 24 0 24 C0.66 23.34 1.32 22.68 2 22 C2.36952049 19.87139338 2.36952049 19.87139338 2.4140625 17.4296875 C2.45273437 16.53378906 2.49140625 15.63789063 2.53125 14.71484375 C2.5621875 13.77769531 2.593125 12.84054687 2.625 11.875 C2.66367187 10.93011719 2.70234375 9.98523438 2.7421875 9.01171875 C2.83661346 6.67467625 2.92218394 4.33764499 3 2 C2.01 2 1.02 2 0 2 C0 1.34 0 0.68 0 0 Z " fill="#292827" transform="translate(279,314)"/>
<path d="M0 0 C1.8125 0.1875 1.8125 0.1875 4 1 C8.29850716 6.62112475 9.41651207 13.05813211 9 20 C8 21 8 21 4.9375 21.0625 C3.968125 21.041875 2.99875 21.02125 2 21 C0.38260862 15.45465813 0 9.74993133 0 4 C-1.65 4 -3.3 4 -5 4 C-4.67 3.34 -4.34 2.68 -4 2 C-2.02 2.495 -2.02 2.495 0 3 C0 2.01 0 1.02 0 0 Z " fill="#827F7A" transform="translate(275,165)"/>
<path d="M0 0 C0.33 0 0.66 0 1 0 C1.06058594 0.62648437 1.12117188 1.25296875 1.18359375 1.8984375 C1.26738281 2.71570313 1.35117187 3.53296875 1.4375 4.375 C1.55931641 5.59316406 1.55931641 5.59316406 1.68359375 6.8359375 C1.89090114 9.04272805 1.89090114 9.04272805 3 11 C2.34 11 1.68 11 1 11 C1 11.66 1 12.32 1 13 C5.455 12.505 5.455 12.505 10 12 C7.16671013 14.83328987 5.64553172 15.7191375 2 17 C2.66 17.99 3.32 18.98 4 20 C3.625 23.1875 3.625 23.1875 3 26 C3.99 26 4.98 26 6 26 C6.66 26.33 7.32 26.66 8 27 C5 29 5 29 2.3125 28.625 C1.1678125 28.315625 1.1678125 28.315625 0 28 C0 25.36 0 22.72 0 20 C-0.99 19.67 -1.98 19.34 -3 19 C-3 17.68 -3 16.36 -3 15 C-5.64 14.67 -8.28 14.34 -11 14 C-11 12 -11 12 -9 10 C-9.33 9.34 -9.66 8.68 -10 8 C-9.34 8 -8.68 8 -8 8 C-7.34 7.34 -6.68 6.68 -6 6 C-6 7.65 -6 9.3 -6 11 C-5.01 11 -4.02 11 -3 11 C-3 8.36 -3 5.72 -3 3 C-2.34 3.66 -1.68 4.32 -1 5 C-0.67 3.35 -0.34 1.7 0 0 Z " fill="#8A8682" transform="translate(305,152)"/>
<path d="M0 0 C0 0.99 0 1.98 0 3 C-2 4.6875 -2 4.6875 -4 6 C-2.96487302 8.79188534 -2.27878041 9.84043184 0.34765625 11.34375 C2.15975665 12.11552226 3.97225811 12.88635351 5.78515625 13.65625 C8 15 8 15 8.74609375 16.96875 C8.82988281 17.6390625 8.91367188 18.309375 9 19 C9.33 19.99 9.66 20.98 10 22 C10.66 22.33 11.32 22.66 12 23 C11.34 23 10.68 23 10 23 C9.67 23.99 9.34 24.98 9 26 C8.360625 25.030625 7.72125 24.06125 7.0625 23.0625 C5.3034741 20.23963731 5.3034741 20.23963731 4 19 C2.0549 21.91765 1.54723683 23.62537285 1 27 C0.67 27 0.34 27 0 27 C-0.10957031 26.09636719 -0.21914062 25.19273437 -0.33203125 24.26171875 C-0.49058594 23.08222656 -0.64914063 21.90273438 -0.8125 20.6875 C-0.96332031 19.51574219 -1.11414063 18.34398437 -1.26953125 17.13671875 C-1.99864995 14.00579726 -2.49171464 12.90354807 -5 11 C-5.99 12.485 -5.99 12.485 -7 14 C-7.99 10.7 -8.98 7.4 -10 4 C-7.68880208 3.25130208 -5.37760417 2.50260417 -3.06640625 1.75390625 C-1.03780412 1.17844506 -1.03780412 1.17844506 0 0 Z " fill="#4A4844" transform="translate(237,262)"/>
<path d="M0 0 C2.475 0.495 2.475 0.495 5 1 C5.33 2.65 5.66 4.3 6 6 C6.66 6 7.32 6 8 6 C8 5.34 8 4.68 8 4 C8.99 4 9.98 4 11 4 C10.67 7.63 10.34 11.26 10 15 C9.01 15 8.02 15 7 15 C6.2575 16.2375 6.2575 16.2375 5.5 17.5 C4.7575 18.7375 4.7575 18.7375 4 20 C3.01 20 2.02 20 1 20 C1.09539062 19.25234375 1.19078125 18.5046875 1.2890625 17.734375 C1.39992187 16.74953125 1.51078125 15.7646875 1.625 14.75 C1.74101562 13.77546875 1.85703125 12.8009375 1.9765625 11.796875 C2.00155257 8.81472661 1.44524231 7.54012285 0 5 C-0.125 2.25 -0.125 2.25 0 0 Z " fill="#E1DBD4" transform="translate(202,169)"/>
<path d="M0 0 C6.28813559 -0.3559322 6.28813559 -0.3559322 9 1 C10.69715456 4.39430911 9.70899085 7.33688059 9 11 C8.67 11.33 8.34 11.66 8 12 C7.67 12.66 7.34 13.32 7 14 C3.03925073 13.43417868 0.27740694 12.30304271 -3 10 C-3.66 9.01 -4.32 8.02 -5 7 C-4.01 6.67 -3.02 6.34 -2 6 C-2.66 5.34 -3.32 4.68 -4 4 C-3.01 3.34 -2.02 2.68 -1 2 C-0.67 1.34 -0.34 0.68 0 0 Z " fill="#E3DDD6" transform="translate(289,150)"/>
<path d="M0 0 C1 2 1 2 1 5 C1.99 5.33 2.98 5.66 4 6 C4.66 4.68 5.32 3.36 6 2 C6.66 2 7.32 2 8 2 C8 1.34 8 0.68 8 0 C11.69418201 1.231394 13.35109746 3.20791354 16 6 C15.67 6.66 15.34 7.32 15 8 C12.69 7.01 10.38 6.02 8 5 C8.680625 6.11375 9.36125 7.2275 10.0625 8.375 C11.22265625 10.2734375 11.22265625 10.2734375 12 12 C11.67 12.66 11.34 13.32 11 14 C10.01 14 9.02 14 8 14 C7.67 15.65 7.34 17.3 7 19 C4.27573689 16.64722731 3.1858237 14.37503669 2 11 C1.01 11.495 1.01 11.495 0 12 C-1.6875 9.9375 -1.6875 9.9375 -3 7 C-2.35079153 4.38152585 -1.27734353 2.41276 0 0 Z " fill="#BAB5AF" transform="translate(209,262)"/>
<path d="M0 0 C0.16873478 1.43725871 0.33490737 2.87481838 0.5 4.3125 C0.5928125 5.11300781 0.685625 5.91351563 0.78125 6.73828125 C1 9 1 9 1 12 C0.34 12 -0.32 12 -1 12 C-1.598125 12.268125 -2.19625 12.53625 -2.8125 12.8125 C-5 13 -5 13 -7.75 11 C-10.47502251 7.36663666 -10.43497796 5.43677521 -10 1 C-6.59437148 0.22157062 -3.49234244 -0.09978121 0 0 Z " fill="#E1DBD4" transform="translate(275,135)"/>
<path d="M0 0 C2 2 2 2 2 6 C2.83144531 5.97679687 3.66289062 5.95359375 4.51953125 5.9296875 C6.14955078 5.90261719 6.14955078 5.90261719 7.8125 5.875 C8.89144531 5.85179687 9.97039062 5.82859375 11.08203125 5.8046875 C14 6 14 6 17 8 C12.05 7.67 7.1 7.34 2 7 C1.67 8.98 1.34 10.96 1 13 C0.01 14.485 0.01 14.485 -1 16 C-0.39671875 15.77183594 0.2065625 15.54367188 0.828125 15.30859375 C1.62734375 15.02113281 2.4265625 14.73367187 3.25 14.4375 C4.03890625 14.14746094 4.8278125 13.85742188 5.640625 13.55859375 C8 13 8 13 12 14 C7.05 15.485 7.05 15.485 2 17 C5.3 17.33 8.6 17.66 12 18 C12 18.33 12 18.66 12 19 C10.35 19 8.7 19 7 19 C7 19.66 7 20.32 7 21 C2.545 20.01 2.545 20.01 -2 19 C-2 17.68 -2 16.36 -2 15 C-2.99 15.33 -3.98 15.66 -5 16 C-5.66 15.34 -6.32 14.68 -7 14 C-6.34 13.67 -5.68 13.34 -5 13 C-4.690625 12.071875 -4.38125 11.14375 -4.0625 10.1875 C-3.05312772 7.15938317 -1.89235033 5.4944618 0 3 C0 2.01 0 1.02 0 0 Z " fill="#6D6A66" transform="translate(221,240)"/>
<path d="M0 0 C3.20162702 0.59862354 3.91936515 0.91264558 6.25 3.4375 C8 6 8 6 8 8 C8.66 8 9.32 8 10 8 C10.93065133 10.60582371 11.14917407 11.64198224 10.0625 14.25 C9.711875 14.8275 9.36125 15.405 9 16 C2.24665676 14.04903418 2.24665676 14.04903418 0 11 C-0.29296875 8.30078125 -0.29296875 8.30078125 -0.1875 5.3125 C-0.16042969 4.31863281 -0.13335937 3.32476562 -0.10546875 2.30078125 C-0.07066406 1.54152344 -0.03585938 0.78226562 0 0 Z " fill="#D1CCC6" transform="translate(238,280)"/>
<path d="M0 0 C0.33 0.66 0.66 1.32 1 2 C1.66 2 2.32 2 3 2 C3 3.32 3 4.64 3 6 C3.66 6.33 4.32 6.66 5 7 C4.01 7 3.02 7 2 7 C2 8.65 2 10.3 2 12 C1.13375 11.814375 0.2675 11.62875 -0.625 11.4375 C-4.05152628 10.99332067 -6.64212371 11.28045508 -10 12 C-9.57781184 10.3501725 -9.13675575 8.70516335 -8.6875 7.0625 C-8.44386719 6.14597656 -8.20023437 5.22945312 -7.94921875 4.28515625 C-7.47935547 3.15400391 -7.47935547 3.15400391 -7 2 C-4 1 -4 1 -2 1 C-1.34 0.67 -0.68 0.34 0 0 Z " fill="#CFCAC3" transform="translate(315,154)"/>
<path d="M0 0 C0 0.99 0 1.98 0 3 C0.66 3.33 1.32 3.66 2 4 C1.67 4.66 1.34 5.32 1 6 C-1.83967231 6 -4.23735711 5.59732819 -7 5 C-7 5.33 -7 5.66 -7 6 C-8.45823212 6.0270043 -9.91660675 6.04639787 -11.375 6.0625 C-12.18710938 6.07410156 -12.99921875 6.08570313 -13.8359375 6.09765625 C-16 6 -16 6 -18 5 C-17.4375 3.125 -17.4375 3.125 -16 1 C-11.04251602 -0.94411137 -4.99432839 -2.49716419 0 0 Z " fill="#DBD6CF" transform="translate(200,246)"/>
<path d="M0 0 C0.33 0.99 0.66 1.98 1 3 C0.690625 3.556875 0.38125 4.11375 0.0625 4.6875 C-1.53065326 8.15495121 -1.12648259 11.2055224 -1 15 C-1.103125 14.360625 -1.20625 13.72125 -1.3125 13.0625 C-1.539375 12.381875 -1.76625 11.70125 -2 11 C-2.99 10.67 -3.98 10.34 -5 10 C-5 9.67 -5 9.34 -5 9 C-7.31 9 -9.62 9 -12 9 C-11.34 9.66 -10.68 10.32 -10 11 C-10.99 11.33 -11.98 11.66 -13 12 C-10.03 12.33 -7.06 12.66 -4 13 C-4 13.33 -4 13.66 -4 14 C-4.69867188 14.06058594 -5.39734375 14.12117187 -6.1171875 14.18359375 C-7.48230469 14.30927734 -7.48230469 14.30927734 -8.875 14.4375 C-9.77992188 14.51871094 -10.68484375 14.59992188 -11.6171875 14.68359375 C-14.01110861 14.86989285 -14.01110861 14.86989285 -16 16 C-15.34 16.99 -14.68 17.98 -14 19 C-15.65 18.67 -17.3 18.34 -19 18 C-18.24964259 14.88200997 -17.36636589 11.81929597 -16.4375 8.75 C-16.16808594 7.85796875 -15.89867187 6.9659375 -15.62109375 6.046875 C-15.41613281 5.37140625 -15.21117187 4.6959375 -15 4 C-14.34 4.66 -13.68 5.32 -13 6 C-11.02 5.01 -9.04 4.02 -7 3 C-7.33 3.99 -7.66 4.98 -8 6 C-6.35 6 -4.7 6 -3 6 C-2.01 4.02 -1.02 2.04 0 0 Z " fill="#76726E" transform="translate(301,142)"/>
<path d="M0 0 C2.97 0 5.94 0 9 0 C9 0.66 9 1.32 9 2 C8.01 2 7.02 2 6 2 C6.10959718 5.29237055 6.24028931 8.58356887 6.375 11.875 C6.4059375 12.81214844 6.436875 13.74929688 6.46875 14.71484375 C6.50742188 15.61074219 6.54609375 16.50664062 6.5859375 17.4296875 C6.6173584 18.25710449 6.6487793 19.08452148 6.68115234 19.93701172 C6.82599137 22.21986085 6.82599137 22.21986085 9 24 C5.7 24 2.4 24 -1 24 C-0.01 23.34 0.98 22.68 2 22 C2.41480107 19.97112689 2.41480107 19.97112689 2.29296875 17.6484375 C2.28330078 16.79765625 2.27363281 15.946875 2.26367188 15.0703125 C2.23853516 14.18085938 2.21339844 13.29140625 2.1875 12.375 C2.17396484 11.4778125 2.16042969 10.580625 2.14648438 9.65625 C2.11106925 7.43690211 2.06168461 5.21874812 2 3 C1.34 2.67 0.68 2.34 0 2 C0 1.34 0 0.68 0 0 Z " fill="#0F0F0E" transform="translate(123,314)"/>
<path d="M0 0 C0.66 0 1.32 0 2 0 C1.77183594 0.77085938 1.54367187 1.54171875 1.30859375 2.3359375 C1.02113281 3.33882813 0.73367188 4.34171875 0.4375 5.375 C0.14746094 6.37273437 -0.14257812 7.37046875 -0.44140625 8.3984375 C-1.27656482 10.9677164 -1.27656482 10.9677164 0 13 C-0.33 13.99 -0.66 14.98 -1 16 C0.98 16 2.96 16 5 16 C4.67 16.66 4.34 17.32 4 18 C3.01 18 2.02 18 1 18 C0.67 19.98 0.34 21.96 0 24 C-0.66 23.67 -1.32 23.34 -2 23 C-2 21.02 -2 19.04 -2 17 C-2.99 16.67 -3.98 16.34 -5 16 C-6.32816109 12.85691721 -5.87284094 10.49136376 -5.0625 7.25 C-4.77052734 6.05117187 -4.77052734 6.05117187 -4.47265625 4.828125 C-4.31667969 4.22484375 -4.16070312 3.6215625 -4 3 C-2.68 2.67 -1.36 2.34 0 2 C0 1.34 0 0.68 0 0 Z " fill="#918D88" transform="translate(303,117)"/>
<path d="M0 0 C0.33 0 0.66 0 1 0 C1.268125 0.928125 1.53625 1.85625 1.8125 2.8125 C2.91148371 5.76240366 3.62418561 7.05615186 6 9 C7.65 8.34 9.3 7.68 11 7 C11 6.67 11 6.34 11 6 C11.32380126 4.66431979 11.65657551 3.33076989 12 2 C15 8.5 15 8.5 15 13 C12.2229192 14.34886782 10.4221566 15.02945279 7.3125 14.8125 C5 14 5 14 3 11 C0.94996045 9.80767387 0.94996045 9.80767387 -1 9 C-1.125 2.25 -1.125 2.25 0 0 Z " fill="#A5A09B" transform="translate(264,138)"/>
<path d="M0 0 C2.31 0 4.62 0 7 0 C7 0.66 7 1.32 7 2 C6.01 2.495 6.01 2.495 5 3 C4.94208156 6.12492251 4.90643254 9.24970766 4.875 12.375 C4.85824219 13.26445312 4.84148437 14.15390625 4.82421875 15.0703125 C4.81777344 15.92109375 4.81132812 16.771875 4.8046875 17.6484375 C4.79421387 18.43395996 4.78374023 19.21948242 4.77294922 20.02880859 C4.82009873 22.234465 4.82009873 22.234465 7 24 C4.03 24 1.06 24 -2 24 C-1.34 23.34 -0.68 22.68 0 22 C0.27765416 19.67182795 0.27765416 19.67182795 0.1953125 16.9921875 C0.18886719 16.00605469 0.18242187 15.01992188 0.17578125 14.00390625 C0.15064453 12.45509766 0.15064453 12.45509766 0.125 10.875 C0.11597656 9.83472656 0.10695312 8.79445313 0.09765625 7.72265625 C0.07403747 5.14820908 0.04110149 2.57421788 0 0 Z " fill="#090909" transform="translate(222,314)"/>
<path d="M0 0 C2.475 0.99 2.475 0.99 5 2 C5 2.99 5 3.98 5 5 C6.46340801 6.64583782 6.46340801 6.64583782 8.375 8.125 C9.00148437 8.64320313 9.62796875 9.16140625 10.2734375 9.6953125 C11.97473172 11.06338091 11.97473172 11.06338091 14 12 C14 12.66 14 13.32 14 14 C12.35 14.33 10.7 14.66 9 15 C8.67 14.34 8.34 13.68 8 13 C7.113125 13.103125 6.22625 13.20625 5.3125 13.3125 C0.99315142 12.90501428 -0.25642975 11.2277297 -3 8 C-1.35 7.01 0.3 6.02 2 5 C1.34 3.35 0.68 1.7 0 0 Z " fill="#7B7874" transform="translate(172,217)"/>
<path d="M0 0 C0.25 7.625 0.25 7.625 -2 11 C-4.64 10.67 -7.28 10.34 -10 10 C-10 9.34 -10 8.68 -10 8 C-10.99 7.67 -11.98 7.34 -13 7 C-12.360625 6.731875 -11.72125 6.46375 -11.0625 6.1875 C-8.66868314 5.11332248 -8.66868314 5.11332248 -8 2 C-5.27366306 0.89786379 -2.95855967 0 0 0 Z " fill="#BFBAB4" transform="translate(211,191)"/>
<path d="M0 0 C1.53582987 2.83836913 2.48730509 5.47675522 3.1875 8.625 C3.45626953 9.78902344 3.45626953 9.78902344 3.73046875 10.9765625 C4 13 4 13 3 15 C-1.47540984 16.26229508 -1.47540984 16.26229508 -4 15 C-5.51143206 10.23317582 -4.63358654 7.11040455 -2.88671875 2.63671875 C-2 1 -2 1 0 0 Z " fill="#A7A29D" transform="translate(306,118)"/>
<path d="M0 0 C-0.804375 0.45375 -1.60875 0.9075 -2.4375 1.375 C-5.08856572 2.74725665 -5.08856572 2.74725665 -6 5 C-6.53804631 9.90415979 -6.84938792 14.41636343 -4 18.625 C-3.34 19.40875 -2.68 20.1925 -2 21 C-5.6773705 20.79570164 -6.80084985 20.22067989 -9.3125 17.4375 C-11.29963847 13.38962533 -12.0459806 10.42124573 -11 6 C-8.19771401 1.21233058 -5.54806327 -1.66441898 0 0 Z " fill="#0E0E0E" transform="translate(360,316)"/>
<path d="M0 0 C-0.78375 0.7425 -1.5675 1.485 -2.375 2.25 C-5.22905938 5.23996696 -6.85142751 7.20524427 -7.1953125 11.359375 C-7.17210937 12.14828125 -7.14890625 12.9371875 -7.125 13.75 C-7.09792969 14.94882813 -7.09792969 14.94882813 -7.0703125 16.171875 C-7.04710937 16.77515625 -7.02390625 17.3784375 -7 18 C-7.99 17.67 -8.98 17.34 -10 17 C-9.67 16.01 -9.34 15.02 -9 14 C-13.29 14 -17.58 14 -22 14 C-18.68629 11.79086 -17.6553979 11.77518447 -13.8125 11.875 C-12.91144531 11.89304688 -12.01039063 11.91109375 -11.08203125 11.9296875 C-10.39496094 11.95289063 -9.70789063 11.97609375 -9 12 C-8.7834375 10.576875 -8.7834375 10.576875 -8.5625 9.125 C-8 6 -8 6 -7 4 C-7.66 4 -8.32 4 -9 4 C-9.33 5.98 -9.66 7.96 -10 10 C-10.33 10 -10.66 10 -11 10 C-11 8.02 -11 6.04 -11 4 C-11.66 3.67 -12.32 3.34 -13 3 C-12.34 2.01 -11.68 1.02 -11 0 C-10.34 0.66 -9.68 1.32 -9 2 C-8.071875 1.484375 -7.14375 0.96875 -6.1875 0.4375 C-3 -1 -3 -1 0 0 Z " fill="#8C8884" transform="translate(209,232)"/>
<path d="M0 0 C0 0.99 0 1.98 0 3 C2.64 3.33 5.28 3.66 8 4 C8 4.66 8 5.32 8 6 C7.34 6 6.68 6 6 6 C5.34 7.65 4.68 9.3 4 11 C2.35 10.67 0.7 10.34 -1 10 C-1 9.34 -1 8.68 -1 8 C-1.99 9.485 -1.99 9.485 -3 11 C-3.66 10.67 -4.32 10.34 -5 10 C-4.34 9.01 -3.68 8.02 -3 7 C-3.33 6.01 -3.66 5.02 -4 4 C-6.64 4.33 -9.28 4.66 -12 5 C-10 3 -10 3 -7.375 2.875 C-6.59125 2.91625 -5.8075 2.9575 -5 3 C-5 2.34 -5 1.68 -5 1 C-3 0 -3 0 0 0 Z " fill="#1B1A18" transform="translate(209,258)"/>
<path d="M0 0 C1.32 0.33 2.64 0.66 4 1 C0.76342614 3.1577159 -2.20386736 4.22713371 -5.875 5.5 C-9.95463712 6.92051059 -14.00350362 8.3588532 -18 10 C-18.33 8.68 -18.66 7.36 -19 6 C-16.09488246 3.17820323 -14.53455169 2.05880657 -10.44921875 1.609375 C-9.20785156 1.65578125 -7.96648437 1.7021875 -6.6875 1.75 C-4.80611328 1.80414063 -4.80611328 1.80414063 -2.88671875 1.859375 C-1.45779297 1.92898437 -1.45779297 1.92898437 0 2 C0 1.34 0 0.68 0 0 Z " fill="#A09C97" transform="translate(222,220)"/>
<path d="M0 0 C1.32 0 2.64 0 4 0 C4 0.66 4 1.32 4 2 C6.97 2.99 9.94 3.98 13 5 C13 5.66 13 6.32 13 7 C13.66 7.33 14.32 7.66 15 8 C10.05 8 5.1 8 0 8 C0 5.36 0 2.72 0 0 Z " fill="#E4DFD8" transform="translate(260,149)"/>
<path d="M0 0 C0.99 0.309375 1.98 0.61875 3 0.9375 C9.82970202 2.68204345 16.98977519 2.67671293 24 3 C20.29583874 5.37590142 17.07015427 5.20500286 12.75 5.125 C11.48671875 5.10695313 10.2234375 5.08890625 8.921875 5.0703125 C7.95765625 5.04710937 6.9934375 5.02390625 6 5 C6 5.66 6 6.32 6 7 C1.25 6.25 1.25 6.25 -1 4 C-0.625 1.875 -0.625 1.875 0 0 Z " fill="#0C0C0C" transform="translate(250,281)"/>
<path d="M0 0 C2.5625 0.375 2.5625 0.375 5 1 C5.66 0.67 6.32 0.34 7 0 C7.99 0 8.98 0 10 0 C10.93423645 3.01031744 11.04449911 3.86650268 10 7 C11.32 7.66 12.64 8.32 14 9 C11.29120665 10.35439668 8.99066732 10.06501451 6 10 C6.33 9.34 6.66 8.68 7 8 C5.35 7.67 3.7 7.34 2 7 C2.33 6.34 2.66 5.68 3 5 C1.02 4.34 -0.96 3.68 -3 3 C-1.8125 1.4375 -1.8125 1.4375 0 0 Z " fill="#94908B" transform="translate(192,250)"/>
<path d="M0 0 C-3.96 1.98 -3.96 1.98 -8 4 C-7.01 5.485 -7.01 5.485 -6 7 C-6.375 10.1875 -6.375 10.1875 -7 13 C-6.01 13 -5.02 13 -4 13 C-3.34 13.33 -2.68 13.66 -2 14 C-5 16 -5 16 -7.6875 15.625 C-8.8321875 15.315625 -8.8321875 15.315625 -10 15 C-10 12.36 -10 9.72 -10 7 C-10.99 6.67 -11.98 6.34 -13 6 C-13.33 4.35 -13.66 2.7 -14 1 C-12.41913952 0.63495397 -10.83516093 0.28339494 -9.25 -0.0625 C-8.36828125 -0.25972656 -7.4865625 -0.45695313 -6.578125 -0.66015625 C-4 -1 -4 -1 0 0 Z " fill="#474542" transform="translate(315,165)"/>
<path d="M0 0 C0.99 0.33 1.98 0.66 3 1 C1.7260411 3.03833424 0.38938077 5.03852126 -1 7 C-1.66 7 -2.32 7 -3 7 C-2.67 7.99 -2.34 8.98 -2 10 C-2.33 10.66 -2.66 11.32 -3 12 C-4.32 12 -5.64 12 -7 12 C-6.34 12.66 -5.68 13.32 -5 14 C-5.66 14 -6.32 14 -7 14 C-6.67 15.65 -6.34 17.3 -6 19 C-6.99 19.33 -7.98 19.66 -9 20 C-9.98120464 16.94736336 -9.98120464 15.05263664 -9 12 C-10.65 11.67 -12.3 11.34 -14 11 C-11.08235 9.0549 -9.37462715 8.54723683 -6 8 C-6 7.34 -6 6.68 -6 6 C-4 4.66666667 -2 3.33333333 0 2 C0 1.34 0 0.68 0 0 Z " fill="#88847F" transform="translate(206,186)"/>
<path d="M0 0 C0.66 0 1.32 0 2 0 C2.33 0.66 2.66 1.32 3 2 C5.64 1.34 8.28 0.68 11 0 C11 0.99 11 1.98 11 3 C9.71086513 3.67154933 8.41859796 4.33708859 7.125 5 C6.40570313 5.37125 5.68640625 5.7425 4.9453125 6.125 C3 7 3 7 1 7 C0.67 7.66 0.34 8.32 0 9 C-1.32 8.67 -2.64 8.34 -4 8 C-3.67 5.69 -3.34 3.38 -3 1 C-2.34 1.66 -1.68 2.32 -1 3 C-0.67 2.01 -0.34 1.02 0 0 Z " fill="#A09C96" transform="translate(284,142)"/>
<path d="M0 0 C0.45375 0.70125 0.9075 1.4025 1.375 2.125 C5.00402577 6.09964727 9.32653918 8.40462386 14 11 C12.2578125 14.875 12.2578125 14.875 9.9375 16 C7.78719721 16.8295822 7.78719721 16.8295822 7.25 19.125 C7.1675 19.74375 7.085 20.3625 7 21 C6.79859524 17.37471432 7.14223235 15.13498292 9 12 C8.2575 11.814375 7.515 11.62875 6.75 11.4375 C2.7722604 9.35822703 1.91205464 7.03655979 0 3 C0 2.01 0 1.02 0 0 Z " fill="#797571" transform="translate(183,252)"/>
<path d="M0 0 C3.64003061 2.42668707 3.71160473 3.96302815 5 8 C5.66 8.33 6.32 8.66 7 9 C6.34 9 5.68 9 5 9 C4.67 9.99 4.34 10.98 4 12 C3.360625 11.030625 2.72125 10.06125 2.0625 9.0625 C0.3034741 6.23963731 0.3034741 6.23963731 -1 5 C-2.9451 7.91765 -3.45276317 9.62537285 -4 13 C-4.33 13 -4.66 13 -5 13 C-5.33 9.7 -5.66 6.4 -6 3 C-4.02 2.01 -2.04 1.02 0 0 Z " fill="#8E8A85" transform="translate(242,276)"/>
<path d="M0 0 C0.68620031 1.32338632 1.34786461 2.65949948 2 4 C2.61875 5.0828125 2.61875 5.0828125 3.25 6.1875 C4.3684026 10.38150974 3.16228839 13.89622791 2 18 C1.34 16.68 0.68 15.36 0 14 C-2.31 14 -4.62 14 -7 14 C-6.67 13.34 -6.34 12.68 -6 12 C-4.02 12 -2.04 12 0 12 C-0.515625 11.4225 -1.03125 10.845 -1.5625 10.25 C-3 8 -3 8 -2.8125 6 C-1.97420791 3.93651179 -1.05172193 1.96321426 0 0 Z " fill="#97938E" transform="translate(201,170)"/>
<path d="M0 0 C6.75342466 1.63013699 6.75342466 1.63013699 9 5 C9.66 5.33 10.32 5.66 11 6 C11.1875 8.875 11.1875 8.875 11 12 C10.01 12.66 9.02 13.32 8 14 C8 14.66 8 15.32 8 16 C7.34 16 6.68 16 6 16 C5.85304688 15.02160156 5.85304688 15.02160156 5.703125 14.0234375 C4.73513262 8.36568892 3.56508917 4.51577961 0 0 Z " fill="#BDB8B2" transform="translate(295,165)"/>
<path d="M0 0 C0.99 0.33 1.98 0.66 3 1 C3.93608986 5.36841936 3.90866394 8.63841308 3 13 C2.95875 14.010625 2.9175 15.02125 2.875 16.0625 C1.59951689 20.344479 -1.27098742 21.79959049 -5 24 C-4.690625 23.236875 -4.38125 22.47375 -4.0625 21.6875 C-3.32106407 19.81210323 -2.63771783 17.91315348 -2 16 C-3.65 15.67 -5.3 15.34 -7 15 C-4.66682784 14.22227595 -2.38564077 13.57584432 0 13 C1.32630565 8.85529486 1.98384711 3.96769422 0 0 Z " fill="#938F8A" transform="translate(319,153)"/>
<path d="M0 0 C0.04241723 2.33294775 0.04092937 4.66702567 0 7 C-1 8 -1 8 -4.0625 8.0625 C-5.031875 8.041875 -6.00125 8.02125 -7 8 C-7.68707555 5.50935112 -8 3.62113708 -8 1 C-5.29120665 -0.35439668 -2.99066732 -0.06501451 0 0 Z " fill="#A5A09B" transform="translate(284,178)"/>
<path d="M0 0 C0.33 0 0.66 0 1 0 C1 3.63 1 7.26 1 11 C0.01 11 -0.98 11 -2 11 C-2.33 11.66 -2.66 12.32 -3 13 C-4.32 12.34 -5.64 11.68 -7 11 C-7 11.66 -7 12.32 -7 13 C-9.64 13 -12.28 13 -15 13 C-15 12.67 -15 12.34 -15 12 C-17.31 11.67 -19.62 11.34 -22 11 C-22 8.03 -22 5.06 -22 2 C-21.67 2 -21.34 2 -21 2 C-21 4.64 -21 7.28 -21 10 C-14.07 10 -7.14 10 0 10 C0 6.7 0 3.4 0 0 Z " fill="#7D7A76" transform="translate(229,209)"/>
<path d="M0 0 C2.4375 0.75 2.4375 0.75 5 2 C5.8125 4.125 5.8125 4.125 6 6 C6.99 6 7.98 6 9 6 C10.4606285 8.64738916 11 9.89448334 11 13 C8 13 8 13 5.5 10.6875 C4.675 9.800625 3.85 8.91375 3 8 C2.401875 7.401875 1.80375 6.80375 1.1875 6.1875 C0.795625 5.795625 0.40375 5.40375 0 5 C0.66 5 1.32 5 2 5 C1.34 3.35 0.68 1.7 0 0 Z " fill="#9D9893" transform="translate(185,220)"/>
<path d="M0 0 C0.99 0.33 1.98 0.66 3 1 C4.47667759 5.43003276 4.42768785 9.36052989 3.25 13.875 C2 16 2 16 0.0625 16.9375 C-2 17 -2 17 -5 15 C-4.38125 14.938125 -3.7625 14.87625 -3.125 14.8125 C-0.83562776 14.17461514 -0.83562776 14.17461514 0.3125 12 C1.2637267 7.84919256 0.67185494 4.16731648 0 0 Z " fill="#E2DCD5" transform="translate(317,151)"/>
<path d="M0 0 C2.475 0.495 2.475 0.495 5 1 C5.84454356 4.37817425 6.10844919 6.67465243 5 10 C3.35 10 1.7 10 0 10 C0 6.7 0 3.4 0 0 Z " fill="#7A7774" transform="translate(214,354)"/>
<path d="M0 0 C4.16259759 1.4800347 7.58509308 3.5446929 11.25 6 C12.83554688 7.051875 12.83554688 7.051875 14.453125 8.125 C17 10 17 10 18 12 C15.83125748 11.49396008 14.00032373 11.00016187 12 10 C12 10.66 12 11.32 12 12 C10.02 12.33 8.04 12.66 6 13 C9 11 9 11 11 11 C11 10.34 11 9.68 11 9 C10.29875 8.814375 9.5975 8.62875 8.875 8.4375 C4.90359949 6.45179974 2.6926582 3.46066724 0 0 Z " fill="#DDD8D1" transform="translate(175,220)"/>
<path d="M0 0 C2.1875 2.3125 2.1875 2.3125 3 5 C2.67 5.99 2.34 6.98 2 8 C1.67 7.030625 1.34 6.06125 1 5.0625 C-0.60746443 1.89278582 -0.60746443 1.89278582 -2.98046875 1.37890625 C-4.97777644 1.14912749 -6.99059814 1.06588203 -9 1 C-9.268125 1.598125 -9.53625 2.19625 -9.8125 2.8125 C-10.98493467 4.97224808 -12.19369282 6.35790256 -14 8 C-14.37125 7.34 -14.7425 6.68 -15.125 6 C-16.90894778 3.64696955 -16.90894778 3.64696955 -20.1875 3.75 C-21.115625 3.8325 -22.04375 3.915 -23 4 C-22.67 3.34 -22.34 2.68 -22 2 C-21.07767578 2.03480469 -21.07767578 2.03480469 -20.13671875 2.0703125 C-18.92435547 2.09738281 -18.92435547 2.09738281 -17.6875 2.125 C-16.48673828 2.15980469 -16.48673828 2.15980469 -15.26171875 2.1953125 C-9.61206085 1.70743185 -6.33692056 -1.06502867 0 0 Z " fill="#908C87" transform="translate(290,132)"/>
<path d="M0 0 C0.66 0 1.32 0 2 0 C2 0.66 2 1.32 2 2 C3.2065625 2.433125 3.2065625 2.433125 4.4375 2.875 C7 4 7 4 8 6 C7.34 6 6.68 6 6 6 C6.33 6.99 6.66 7.98 7 9 C1.83024354 8.11375604 -2.4768406 7.07944772 -6 3 C-5.34 3 -4.68 3 -4 3 C-3.67 2.34 -3.34 1.68 -3 1 C-2.01 1.66 -1.02 2.32 0 3 C0 2.01 0 1.02 0 0 Z " fill="#312F2C" transform="translate(217,255)"/>
<path d="M0 0 C0.99 0.33 1.98 0.66 3 1 C2.01 2.485 2.01 2.485 1 4 C1.33 4.66 1.66 5.32 2 6 C1.06553465 8.03144641 0.06775224 10.03533587 -1 12 C-1.33 11.01 -1.66 10.02 -2 9 C-2.99 9.33 -3.98 9.66 -5 10 C-5.33 8.68 -5.66 7.36 -6 6 C-5.34 5.67 -4.68 5.34 -4 5 C-4.33 4.34 -4.66 3.68 -5 3 C-2.6875 1.4375 -2.6875 1.4375 0 0 Z " fill="#ABA7A1" transform="translate(204,264)"/>
<path d="M0 0 C2.64 0 5.28 0 8 0 C8 0.66 8 1.32 8 2 C7.01 2.33 6.02 2.66 5 3 C4.67 7.95 4.34 12.9 4 18 C3.34 18 2.68 18 2 18 C2 12.72 2 7.44 2 2 C1.34 2 0.68 2 0 2 C0 1.34 0 0.68 0 0 Z " fill="#3D3B3A" transform="translate(407,314)"/>
<path d="M0 0 C2.97 0.495 2.97 0.495 6 1 C6.33 1.99 6.66 2.98 7 4 C7.66 4.66 8.32 5.32 9 6 C5.7 6.66 2.4 7.32 -1 8 C-1.125 2.25 -1.125 2.25 0 0 Z " fill="#E1DBD4" transform="translate(193,188)"/>
<path d="M0 0 C0.33 0 0.66 0 1 0 C1.268125 0.928125 1.53625 1.85625 1.8125 2.8125 C2.93710035 5.8311641 3.70706573 6.9155143 6 9 C6 9.66 6 10.32 6 11 C7.32 11.66 8.64 12.32 10 13 C10 13.66 10 14.32 10 15 C7.625 14.6875 7.625 14.6875 5 14 C4.34 13.01 3.68 12.02 3 11 C0.94996045 9.80767387 0.94996045 9.80767387 -1 9 C-1.125 2.25 -1.125 2.25 0 0 Z " fill="#B8B3AD" transform="translate(264,138)"/>
<path d="M0 0 C3.69418201 1.231394 5.35109746 3.20791354 8 6 C7.67 6.66 7.34 7.32 7 8 C4.69 7.01 2.38 6.02 0 5 C-0.66 6.32 -1.32 7.64 -2 9 C-2.66 9 -3.32 9 -4 9 C-3.125 4.25 -3.125 4.25 -2 2 C-1.34 2 -0.68 2 0 2 C0 1.34 0 0.68 0 0 Z " fill="#6F6C68" transform="translate(217,262)"/>
<path d="M0 0 C4.19469571 0.59924224 8.00999834 1.57499941 12 3 C7.72679547 5.84880302 5.21831143 7.28990619 0 7 C0.33 6.01 0.66 5.02 1 4 C0.61067144 1.85744207 0.61067144 1.85744207 0 0 Z " fill="#ABA6A1" transform="translate(276,187)"/>
<path d="M0 0 C0.33 0.66 0.66 1.32 1 2 C1.99 2.33 2.98 2.66 4 3 C3.01 3.33 2.02 3.66 1 4 C3.97 4.33 6.94 4.66 10 5 C10 5.33 10 5.66 10 6 C8.95199219 6.09087891 8.95199219 6.09087891 7.8828125 6.18359375 C6.97273438 6.26738281 6.06265625 6.35117188 5.125 6.4375 C4.22007812 6.51871094 3.31515625 6.59992188 2.3828125 6.68359375 C-0.01110861 6.86989285 -0.01110861 6.86989285 -2 8 C-1.01 9.485 -1.01 9.485 0 11 C-1.65 10.67 -3.3 10.34 -5 10 C-4.3001048 6.85047161 -3.34839851 3.9347497 -2 1 C-1.34 0.67 -0.68 0.34 0 0 Z " fill="#A7A39E" transform="translate(287,150)"/>
<path d="M0 0 C0.66 0.99 1.32 1.98 2 3 C2.8971875 2.505 2.8971875 2.505 3.8125 2 C6 1 6 1 9 1 C10.33981486 0.6937566 11.67511887 0.36548445 13 0 C13 0.66 13 1.32 13 2 C12.09507812 2.39832031 12.09507812 2.39832031 11.171875 2.8046875 C10.37265625 3.15789062 9.5734375 3.51109375 8.75 3.875 C7.96109375 4.22304687 7.1721875 4.57109375 6.359375 4.9296875 C4.21131392 5.90413905 2.10170798 6.92986429 0 8 C-1.09658936 4.71023192 -0.79953138 3.28696233 0 0 Z " fill="#353330" transform="translate(199,227)"/>
<path d="M0 0 C2 1 2 1 4 3 C4.680625 3.33 5.36125 3.66 6.0625 4 C8 5 8 5 9 7 C2.95198929 6.45018084 -2.30601106 5.09570426 -8 3 C-5.29120665 1.64560332 -2.99066732 1.93498549 0 2 C0 1.34 0 0.68 0 0 Z " fill="#96938D" transform="translate(187,230)"/>
<path d="M0 0 C0.33 0.99 0.66 1.98 1 3 C2.32 3.33 3.64 3.66 5 4 C4.67 7.3 4.34 10.6 4 14 C4.99 14.33 5.98 14.66 7 15 C6.67 15.66 6.34 16.32 6 17 C4.68 16.67 3.36 16.34 2 16 C2.66 12.37 3.32 8.74 4 5 C3.01 5 2.02 5 1 5 C1 5.66 1 6.32 1 7 C0.34 7 -0.32 7 -1 7 C-1.33 5.68 -1.66 4.36 -2 3 C-1.34 3 -0.68 3 0 3 C0 2.01 0 1.02 0 0 Z " fill="#4B4945" transform="translate(209,168)"/>
<path d="M0 0 C1.8125 0.1875 1.8125 0.1875 4 1 C7 5.17857143 7 5.17857143 7 8 C4.03 7.505 4.03 7.505 1 7 C0.67 6.01 0.34 5.02 0 4 C-1.65 4 -3.3 4 -5 4 C-4.67 3.34 -4.34 2.68 -4 2 C-2.02 2.495 -2.02 2.495 0 3 C0 2.01 0 1.02 0 0 Z " fill="#AEA9A4" transform="translate(275,165)"/>
<path d="M0 0 C2.31 0 4.62 0 7 0 C7 0.66 7 1.32 7 2 C5.35 2 3.7 2 2 2 C2 2.99 2 3.98 2 5 C3.32 5.33 4.64 5.66 6 6 C4.68 6 3.36 6 2 6 C2 6.99 2 7.98 2 9 C3.65 9 5.3 9 7 9 C7 9.33 7 9.66 7 10 C4.69 10 2.38 10 0 10 C0 6.7 0 3.4 0 0 Z " fill="#716E6B" transform="translate(226,354)"/>
<path d="M0 0 C1.33855056 0.78281305 2.67073644 1.57651877 4 2.375 C5.11375 3.03628906 5.11375 3.03628906 6.25 3.7109375 C6.8275 4.13632813 7.405 4.56171875 8 5 C8 5.66 8 6.32 8 7 C6.35 7.33 4.7 7.66 3 8 C2.67 7.34 2.34 6.68 2 6 C-0.52733235 5.34444881 -0.52733235 5.34444881 -3 5 C-3.33 4.01 -3.66 3.02 -4 2 C-2.68 2 -1.36 2 0 2 C0 1.34 0 0.68 0 0 Z " fill="#514E4B" transform="translate(178,224)"/>
<path d="M0 0 C0.66 0 1.32 0 2 0 C2.99 2.97 3.98 5.94 5 9 C4.34 9 3.68 9 3 9 C3 8.34 3 7.68 3 7 C1.02 7.66 -0.96 8.32 -3 9 C-2.01 6.03 -1.02 3.06 0 0 Z " fill="#74716E" transform="translate(242,355)"/>
<path d="M0 0 C1.53069975 3.0613995 0.51513345 5.6802511 0 9 C0 10.32 0 11.64 0 13 C-0.99 12.67 -1.98 12.34 -3 12 C-2.67 11.01 -2.34 10.02 -2 9 C-6.29 9 -10.58 9 -15 9 C-11.68629 6.79086 -10.6553979 6.77518447 -6.8125 6.875 C-5.91144531 6.89304688 -5.01039063 6.91109375 -4.08203125 6.9296875 C-3.39496094 6.95289063 -2.70789063 6.97609375 -2 7 C-1.855625 6.030625 -1.71125 5.06125 -1.5625 4.0625 C-1 1 -1 1 0 0 Z " fill="#605D59" transform="translate(202,237)"/>
<path d="M0 0 C1.32 0.33 2.64 0.66 4 1 C1.14415227 2.90389849 -0.9311762 3.69462177 -4.1875 4.625 C-5.08855469 4.88539063 -5.98960937 5.14578125 -6.91796875 5.4140625 C-7.94857422 5.70410156 -7.94857422 5.70410156 -9 6 C-9 5.34 -9 4.68 -9 4 C-10.65 4.66 -12.3 5.32 -14 6 C-13.67 5.01 -13.34 4.02 -13 3 C-8.59085217 1.89771304 -4.51617599 1.92345464 0 2 C0 1.34 0 0.68 0 0 Z " fill="#D9D4CD" transform="translate(222,220)"/>
<path d="M0 0 C0.99 0.33 1.98 0.66 3 1 C3.625 3.8125 3.625 3.8125 4 7 C3.01 8.485 3.01 8.485 2 10 C1.01 10 0.02 10 -1 10 C-0.67 6.7 -0.34 3.4 0 0 Z " fill="#CEC9C2" transform="translate(204,179)"/>
<path d="M0 0 C2.31 0.33 4.62 0.66 7 1 C7 1.33 7 1.66 7 2 C4.69 2 2.38 2 0 2 C-0.33 4.64 -0.66 7.28 -1 10 C-0.34 10.33 0.32 10.66 1 11 C-1.31 11 -3.62 11 -6 11 C-4.02 7.37 -2.04 3.74 0 0 Z " fill="#131211" transform="translate(168,327)"/>
<path d="M0 0 C3.08669204 3.08669204 3.44855089 3.91927658 4 8 C1.69 8 -0.62 8 -3 8 C-2.01 5.36 -1.02 2.72 0 0 Z " fill="#D2CDC7" transform="translate(172,320)"/>
<path d="M0 0 C0.33 0.66 0.66 1.32 1 2 C3.97 2 6.94 2 10 2 C6.50152926 4.33231383 5.17286691 4.18951999 1.0625 4.0625 C-2.51042986 3.96066929 -5.57226264 3.93451056 -9 5 C-8.67 4.01 -8.34 3.02 -8 2 C-6.15234375 1.26953125 -6.15234375 1.26953125 -3.9375 0.8125 C-3.20402344 0.65394531 -2.47054687 0.49539062 -1.71484375 0.33203125 C-1.14894531 0.22246094 -0.58304687 0.11289063 0 0 Z " fill="#3B3937" transform="translate(258,157)"/>
<path d="M0 0 C0.33 0.99 0.66 1.98 1 3 C2.98 3 4.96 3 7 3 C6.67 3.66 6.34 4.32 6 5 C5.01 5 4.02 5 3 5 C2.67 6.98 2.34 8.96 2 11 C1.34 10.67 0.68 10.34 0 10 C0 8.02 0 6.04 0 4 C-0.99 3.67 -1.98 3.34 -3 3 C-2.01 2.01 -1.02 1.02 0 0 Z " fill="#726F6A" transform="translate(301,130)"/>
<path d="M0 0 C0.99 0 1.98 0 3 0 C2.67 3.63 2.34 7.26 2 11 C1.01 11 0.02 11 -1 11 C-1.33 10.34 -1.66 9.68 -2 9 C-1.34 9 -0.68 9 0 9 C-0.185625 7.88625 -0.37125 6.7725 -0.5625 5.625 C-1 2 -1 2 0 0 Z " fill="#C4BEB8" transform="translate(210,173)"/>
<path d="M0 0 C2.475 0.495 2.475 0.495 5 1 C4.67 3.31 4.34 5.62 4 8 C4.99 8 5.98 8 7 8 C7.66 8.33 8.32 8.66 9 9 C6 11 6 11 3.3125 10.625 C2.549375 10.41875 1.78625 10.2125 1 10 C1.03255208 7.98177083 1.06510417 5.96354167 1.09765625 3.9453125 C1.12649242 1.91814596 1.12649242 1.91814596 0 0 Z " fill="#7F7B77" transform="translate(304,170)"/>
<path d="M0 0 C1.96077495 2.76815287 2.1221501 4.84985471 1.8125 8.125 C1 12 1 12 -2 14 C-3.55577239 8.34264585 -2.24281523 5.20333134 0 0 Z " fill="#E9E3DC" transform="translate(304,119)"/>
<path d="M0 0 C0.33 0 0.66 0 1 0 C1.05607422 1.55460937 1.05607422 1.55460937 1.11328125 3.140625 C1.17895788 4.51045184 1.24540464 5.88024191 1.3125 7.25 C1.33505859 7.93191406 1.35761719 8.61382812 1.38085938 9.31640625 C1.60166604 13.45151296 2.09593 15.97914434 5 19 C2.36 19 -0.28 19 -3 19 C-2.34 18.34 -1.68 17.68 -1 17 C-0.69324768 14.10032243 -0.48826629 11.28216822 -0.375 8.375 C-0.33632813 7.57320313 -0.29765625 6.77140625 -0.2578125 5.9453125 C-0.16346069 3.96392444 -0.08063785 1.98199355 0 0 Z " fill="#030303" transform="translate(393,319)"/>
<path d="M0 0 C0.33 0 0.66 0 1 0 C1.04898438 1.27617187 1.09796875 2.55234375 1.1484375 3.8671875 C1.22346191 5.53648072 1.29900988 7.20575046 1.375 8.875 C1.4059375 9.71675781 1.436875 10.55851562 1.46875 11.42578125 C1.50742188 12.23144531 1.54609375 13.03710938 1.5859375 13.8671875 C1.6173584 14.61081543 1.6487793 15.35444336 1.68115234 16.12060547 C1.85419551 18.24010974 1.85419551 18.24010974 4 20 C1.36 20 -1.28 20 -4 20 C-3.5155542 19.5877417 -3.0311084 19.1754834 -2.53198242 18.75073242 C-0.70832867 16.66668126 -0.59077411 15.71459137 -0.48828125 12.98828125 C-0.43510742 11.85229492 -0.43510742 11.85229492 -0.38085938 10.69335938 C-0.35830078 9.90767578 -0.33574219 9.12199219 -0.3125 8.3125 C-0.27833984 7.51521484 -0.24417969 6.71792969 -0.20898438 5.89648438 C-0.12661896 3.93148096 -0.06162933 1.96576304 0 0 Z " fill="#020101" transform="translate(203,318)"/>
<path d="M0 0 C2.64 0 5.28 0 8 0 C7.67 0.66 7.34 1.32 7 2 C7.66 2.66 8.32 3.32 9 4 C8.34 4 7.68 4 7 4 C7.33 5.65 7.66 7.3 8 9 C7.01 9.33 6.02 9.66 5 10 C4.01879536 6.94736336 4.01879536 5.05263664 5 2 C3.35 1.67 1.7 1.34 0 1 C0 0.67 0 0.34 0 0 Z " fill="#8E8A85" transform="translate(192,196)"/>
<path d="M0 0 C0.66 0 1.32 0 2 0 C2 0.66 2 1.32 2 2 C2.99 2.33 3.98 2.66 5 3 C4.34 3.66 3.68 4.32 3 5 C2.34 4.67 1.68 4.34 1 4 C0.67 5.32 0.34 6.64 0 8 C1.98 8.495 1.98 8.495 4 9 C2.68 9 1.36 9 0 9 C-0.33 9.99 -0.66 10.98 -1 12 C-1.02687279 10.18757948 -1.04633715 8.37504767 -1.0625 6.5625 C-1.07410156 5.55316406 -1.08570313 4.54382813 -1.09765625 3.50390625 C-1 1 -1 1 0 0 Z " fill="#827F7A" transform="translate(192,184)"/>
<path d="M0 0 C0.33 0 0.66 0 1 0 C1.66 5.94 2.32 11.88 3 18 C2.01 18.33 1.02 18.66 0 19 C0 12.73 0 6.46 0 0 Z " fill="#777470" transform="translate(196,207)"/>
<path d="M0 0 C1.33728828 0.31709452 2.67009774 0.65323081 4 1 C6.75970408 1.06926968 9.49196042 1.0941736 12.25 1.0625 C13.36761719 1.05573242 13.36761719 1.05573242 14.5078125 1.04882812 C16.3385764 1.03709246 18.16929873 1.0191585 20 1 C20 1.33 20 1.66 20 2 C15.38 2 10.76 2 6 2 C6 2.66 6 3.32 6 4 C1.25 3.25 1.25 3.25 -1 1 C-0.67 0.67 -0.34 0.34 0 0 Z " fill="#726F6C" transform="translate(250,284)"/>
<path d="M0 0 C-0.99 2.31 -1.98 4.62 -3 7 C-3.66 6.67 -4.32 6.34 -5 6 C-4.34 5.01 -3.68 4.02 -3 3 C-3.33 2.01 -3.66 1.02 -4 0 C-6.64 0.33 -9.28 0.66 -12 1 C-8.14267411 -2.85732589 -4.65697048 -2.26195709 0 0 Z " fill="#615E5A" transform="translate(209,262)"/>
<path d="M0 0 C-1.66751148 3.94139078 -4.22710649 6.7892812 -7 10 C-7.625 8.1875 -7.625 8.1875 -8 6 C-4 0 -4 0 0 0 Z " fill="#8A8681" transform="translate(226,169)"/>
<path d="M0 0 C1.98 0 3.96 0 6 0 C6 0.66 6 1.32 6 2 C5.34 2 4.68 2 4 2 C4 4.64 4 7.28 4 10 C3.34 10 2.68 10 2 10 C2 7.36 2 4.72 2 2 C1.34 2 0.68 2 0 2 C0 1.34 0 0.68 0 0 Z " fill="#787572" transform="translate(267,354)"/>
<path d="M0 0 C0.33 0 0.66 0 1 0 C1 2.64 1 5.28 1 8 C0.67 7.34 0.34 6.68 0 6 C-0.721875 6.350625 -1.44375 6.70125 -2.1875 7.0625 C-5.3122705 8.10409017 -6.88161996 7.89096572 -10 7 C-10 6.67 -10 6.34 -10 6 C-7.36 5.67 -4.72 5.34 -2 5 C-1.34 3.35 -0.68 1.7 0 0 Z " fill="#2D2C2B" transform="translate(106,330)"/>
<path d="M0 0 C0.66 0 1.32 0 2 0 C1.34 2.64 0.68 5.28 0 8 C-2.475 7.01 -2.475 7.01 -5 6 C-4.67 5.01 -4.34 4.02 -4 3 C-1.9375 2.3125 -1.9375 2.3125 0 2 C0 1.34 0 0.68 0 0 Z " fill="#A09C97" transform="translate(303,117)"/>
<path d="M0 0 C0.66 0.99 1.32 1.98 2 3 C1.1015625 5.69921875 1.1015625 5.69921875 -0.375 8.6875 C-1.09816406 10.17830078 -1.09816406 10.17830078 -1.8359375 11.69921875 C-2.22007812 12.45847656 -2.60421875 13.21773438 -3 14 C-3.66 13.67 -4.32 13.34 -5 13 C-3.58192622 8.52761347 -1.88695626 4.28853694 0 0 Z " fill="#2B2A28" transform="translate(221,316)"/>
<path d="M0 0 C0.99 0.33 1.98 0.66 3 1 C2.690625 1.721875 2.38125 2.44375 2.0625 3.1875 C1.07439461 5.80307309 0.4712246 8.25118982 0 11 C-0.33 11 -0.66 11 -1 11 C-1.33 7.7 -1.66 4.4 -2 1 C-1.34 0.67 -0.68 0.34 0 0 Z " fill="#75716D" transform="translate(238,278)"/>
<path d="M0 0 C-1 3 -1 3 -2.9375 4.25 C-3.618125 4.4975 -4.29875 4.745 -5 5 C-5.66 4.67 -6.32 4.34 -7 4 C-7 2.68 -7 1.36 -7 0 C-4.3333581 -1.33332095 -2.83319697 -0.67102033 0 0 Z " fill="#686561" transform="translate(219,226)"/>
<path d="M0 0 C0 3.63 0 7.26 0 11 C-0.33 11 -0.66 11 -1 11 C-1 9.02 -1 7.04 -1 5 C-2.32 4.67 -3.64 4.34 -5 4 C-5 3.01 -5 2.02 -5 1 C-2 0 -2 0 0 0 Z " fill="#D7D2CB" transform="translate(215,167)"/>
<path d="M0 0 C0.33 0.99 0.66 1.98 1 3 C0.5359375 3.8353125 0.5359375 3.8353125 0.0625 4.6875 C-1.53065326 8.15495121 -1.12648259 11.2055224 -1 15 C-1.103125 14.360625 -1.20625 13.72125 -1.3125 13.0625 C-1.539375 12.381875 -1.76625 11.70125 -2 11 C-2.99 10.67 -3.98 10.34 -5 10 C-5 7 -5 7 -3.625 5.5625 C-3.08875 5.046875 -2.5525 4.53125 -2 4 C-0.82425289 1.90010348 -0.82425289 1.90010348 0 0 Z " fill="#706C68" transform="translate(301,142)"/>
<path d="M0 0 C2.475 0.495 2.475 0.495 5 1 C5.33 1.99 5.66 2.98 6 4 C4.02 4.33 2.04 4.66 0 5 C0 3.35 0 1.7 0 0 Z " fill="#878380" transform="translate(214,354)"/>
<path d="M0 0 C2.5625 0.375 2.5625 0.375 5 1 C5.66 0.67 6.32 0.34 7 0 C7.33 0.99 7.66 1.98 8 3 C7.67 3.33 7.34 3.66 7 4 C5.30858344 3.91036938 3.62040398 3.75422324 1.9375 3.5625 C0.55884766 3.40974609 0.55884766 3.40974609 -0.84765625 3.25390625 C-1.55792969 3.17011719 -2.26820313 3.08632812 -3 3 C-1.66015625 1.4765625 -1.66015625 1.4765625 0 0 Z " fill="#B6B1AC" transform="translate(192,250)"/>
<path d="M0 0 C5.75 0.75 5.75 0.75 8 3 C8.33 3.66 8.66 4.32 9 5 C6.69 6.65 4.38 8.3 2 10 C2.4640625 8.8553125 2.4640625 8.8553125 2.9375 7.6875 C3.67893593 5.81210323 4.36228217 3.91315348 5 2 C3.35 1.67 1.7 1.34 0 1 C0 0.67 0 0.34 0 0 Z " fill="#6F6B67" transform="translate(312,167)"/>
<path d="M0 0 C0.66 0.33 1.32 0.66 2 1 C2 2.32 2 3.64 2 5 C2.99 5.33 3.98 5.66 5 6 C4.34 6.66 3.68 7.32 3 8 C2.34 8 1.68 8 1 8 C-0.33783393 8.31478446 -1.67203709 8.64587656 -3 9 C-3 8.01 -3 7.02 -3 6 C-1.68 6 -0.36 6 1 6 C0.67 4.02 0.34 2.04 0 0 Z " fill="#4B4945" transform="translate(278,145)"/>
<path d="M0 0 C1 2 1 2 1 5 C1.66 5.33 2.32 5.66 3 6 C2.34 7.98 1.68 9.96 1 12 C-2 10 -2 10 -2.875 8.25 C-3.05871057 4.94320979 -1.60430783 2.82358179 0 0 Z " fill="#97938E" transform="translate(209,262)"/>
<path d="M0 0 C1.65 0 3.3 0 5 0 C5.33 0.66 5.66 1.32 6 2 C5.34 2 4.68 2 4 2 C4.33 2.99 4.66 3.98 5 5 C0.25 4.25 0.25 4.25 -2 2 C-1.34 2 -0.68 2 0 2 C0 1.34 0 0.68 0 0 Z " fill="#42403C" transform="translate(219,259)"/>
<path d="M0 0 C1.37562854 1.28965176 2.70766393 2.62689293 4 4 C4 4.66 4 5.32 4 6 C2.02 6.33 0.04 6.66 -2 7 C-1.34 4.69 -0.68 2.38 0 0 Z " fill="#9A9691" transform="translate(251,152)"/>
<path d="M0 0 C1.98 0.66 3.96 1.32 6 2 C6 2.66 6 3.32 6 4 C7.32 4.66 8.64 5.32 10 6 C9.34 6.66 8.68 7.32 8 8 C8 7.34 8 6.68 8 6 C7.2575 5.896875 6.515 5.79375 5.75 5.6875 C2.82985982 4.95746496 1.26812446 3.93210602 -1 2 C-0.67 1.34 -0.34 0.68 0 0 Z " fill="#7F7B77" transform="translate(265,148)"/>
<path d="M0 0 C1.32 0.99 2.64 1.98 4 3 C1.47524538 4.26237731 -0.31200466 4.09856404 -3.125 4.0625 C-4.03507812 4.05347656 -4.94515625 4.04445312 -5.8828125 4.03515625 C-6.58148438 4.02355469 -7.28015625 4.01195312 -8 4 C-5.33333333 2.66666667 -2.66666667 1.33333333 0 0 Z " fill="#928E89" transform="translate(297,186)"/>
<path d="M0 0 C0.33 0 0.66 0 1 0 C1 1.98 1 3.96 1 6 C-2.63 5.67 -6.26 5.34 -10 5 C-10 4.67 -10 4.34 -10 4 C-6.97265625 3.75585938 -6.97265625 3.75585938 -3.9453125 3.51171875 C-1.60480784 3.12606964 -1.60480784 3.12606964 0 0 Z " fill="#302F2E" transform="translate(298,332)"/>
<path d="M0 0 C2.86724686 0.57344937 3.8614515 0.8614515 6 3 C5.625 5.125 5.625 5.125 5 7 C3.29115995 5.37660195 1.62553283 3.70680947 0 2 C0 1.34 0 0.68 0 0 Z " fill="#C1BCB6" transform="translate(244,278)"/>
<path d="M0 0 C1.65 0 3.3 0 5 0 C5.33 0.66 5.66 1.32 6 2 C5.01 3.485 5.01 3.485 4 5 C2.35 4.67 0.7 4.34 -1 4 C-0.67 2.68 -0.34 1.36 0 0 Z " fill="#4A4844" transform="translate(209,264)"/>
<path d="M0 0 C3.69418201 1.231394 5.35109746 3.20791354 8 6 C7.67 6.66 7.34 7.32 7 8 C4.625 7.375 4.625 7.375 2 6 C0.6875 2.875 0.6875 2.875 0 0 Z " fill="#827F7A" transform="translate(217,262)"/>
<path d="M0 0 C2.8203125 0.0234375 2.8203125 0.0234375 6.125 0.375 C7.22070312 0.48585938 8.31640625 0.59671875 9.4453125 0.7109375 C10.28835937 0.80632812 11.13140625 0.90171875 12 1 C12 1.33 12 1.66 12 2 C10.35 2 8.7 2 7 2 C7 2.66 7 3.32 7 4 C2.545 3.01 2.545 3.01 -2 2 C-1.34 1.34 -0.68 0.68 0 0 Z " fill="#938F8A" transform="translate(221,257)"/>
<path d="M0 0 C2.475 0.99 2.475 0.99 5 2 C5 4 5 6 5 8 C3.35 7.67 1.7 7.34 0 7 C0.66 6.34 1.32 5.68 2 5 C1.34 3.35 0.68 1.7 0 0 Z " fill="#5D5A56" transform="translate(172,217)"/>
<path d="M0 0 C0.33 0.66 0.66 1.32 1 2 C0.01 3.485 0.01 3.485 -1 5 C-3.64 4.67 -6.28 4.34 -9 4 C-9 3.67 -9 3.34 -9 3 C-6.03 2.01 -3.06 1.02 0 0 Z " fill="#7E7B77" transform="translate(210,197)"/>
<path d="M0 0 C2.38564077 0.57584432 4.66682784 1.22227595 7 2 C6.67 3.65 6.34 5.3 6 7 C1.125 2.25 1.125 2.25 0 0 Z " fill="#DFDAD3" transform="translate(295,165)"/>
<path d="M0 0 C3.3 0 6.6 0 10 0 C6.99382731 3.00617269 4.17618402 2.59585316 0 3 C0 2.01 0 1.02 0 0 Z " fill="#D1CCC6" transform="translate(192,193)"/>
<path d="M0 0 C4.875 1.75 4.875 1.75 6 4 C5.34 4.66 4.68 5.32 4 6 C3.67 6.66 3.34 7.32 3 8 C2.01 7.01 1.02 6.02 0 5 C0.66 5 1.32 5 2 5 C1.34 3.35 0.68 1.7 0 0 Z " fill="#73706B" transform="translate(185,220)"/>
<path d="M0 0 C0.99 0.66 1.98 1.32 3 2 C3 2.66 3 3.32 3 4 C1.35 4.66 -0.3 5.32 -2 6 C-2 4.33333333 -2 2.66666667 -2 1 C-1.34 0.67 -0.68 0.34 0 0 Z " fill="#D2CDC6" transform="translate(205,192)"/>
<path d="M0 0 C3.96 0 7.92 0 12 0 C12 1.65 12 3.3 12 5 C11.60167969 4.51917969 11.20335937 4.03835938 10.79296875 3.54296875 C8.56549753 1.62608175 7.21165331 1.52258357 4.3125 1.3125 C3.10013672 1.21388672 3.10013672 1.21388672 1.86328125 1.11328125 C0.94095703 1.05720703 0.94095703 1.05720703 0 1 C0 0.67 0 0.34 0 0 Z " fill="#2A2928" transform="translate(320,315)"/>
<path d="M0 0 C3.96 0 7.92 0 12 0 C12 1.65 12 3.3 12 5 C11.60167969 4.51917969 11.20335937 4.03835938 10.79296875 3.54296875 C8.56549753 1.62608175 7.21165331 1.52258357 4.3125 1.3125 C3.10013672 1.21388672 3.10013672 1.21388672 1.86328125 1.11328125 C0.94095703 1.05720703 0.94095703 1.05720703 0 1 C0 0.67 0 0.34 0 0 Z " fill="#2A2928" transform="translate(251,315)"/>
<path d="M0 0 C0 0.66 0 1.32 0 2 C-3.375 2.625 -3.375 2.625 -7 3 C-7.66 2.34 -8.32 1.68 -9 1 C-2.25 -1.125 -2.25 -1.125 0 0 Z " fill="#272624" transform="translate(281,282)"/>
<path d="M0 0 C1.32 0 2.64 0 4 0 C4 0.99 4 1.98 4 3 C4.99 3.66 5.98 4.32 7 5 C4.69 5 2.38 5 0 5 C0 3.35 0 1.7 0 0 Z " fill="#B3AEA9" transform="translate(260,149)"/>
<path d="M0 0 C0.66 0 1.32 0 2 0 C3.6875 2.375 3.6875 2.375 5 5 C4.67 5.66 4.34 6.32 4 7 C2.68 6.34 1.36 5.68 0 5 C0 3.35 0 1.7 0 0 Z " fill="#9B9691" transform="translate(216,269)"/>
<path d="M0 0 C0 3 0 3 -1.3125 4.38671875 C-2.875 5.59114583 -4.4375 6.79557292 -6 8 C-6.33 7.01 -6.66 6.02 -7 5 C-5.60683123 2.21366246 -3.84019484 2.06507306 -1 1 C-0.67 0.67 -0.34 0.34 0 0 Z " fill="#7C7874" transform="translate(237,262)"/>
<path d="M0 0 C2.875 0.3125 2.875 0.3125 6 1 C6.66 1.99 7.32 2.98 8 4 C6.02 4.33 4.04 4.66 2 5 C2 4.34 2 3.68 2 3 C1.34 3 0.68 3 0 3 C0 2.01 0 1.02 0 0 Z " fill="#9E9994" transform="translate(209,258)"/>
<path d="M0 0 C-2.97 2.475 -2.97 2.475 -6 5 C-6.33 4.34 -6.66 3.68 -7 3 C-7.66 2.67 -8.32 2.34 -9 2 C-3.375 -1.125 -3.375 -1.125 0 0 Z " fill="#635F5C" transform="translate(209,232)"/>
<path d="M0 0 C5.95703125 -0.390625 5.95703125 -0.390625 8 0 C9.76171875 2.015625 9.76171875 2.015625 11 4 C9.35232753 3.71890887 7.70686855 3.42481474 6.0625 3.125 C4.68771484 2.88136719 4.68771484 2.88136719 3.28515625 2.6328125 C2.53105469 2.42398438 1.77695313 2.21515625 1 2 C0.67 1.34 0.34 0.68 0 0 Z " fill="#66635F" transform="translate(179,232)"/>
<path d="M0 0 C0.53625 0.226875 1.0725 0.45375 1.625 0.6875 C-5 3.8125 -5 3.8125 -8.375 2.6875 C-2.95961538 -0.38942308 -2.95961538 -0.38942308 0 0 Z " fill="#7C7974" transform="translate(313.375,164.3125)"/>
<path d="M0 0 C2.62386487 3.06117568 3 3.73173127 3 8 C1.68 7.67 0.36 7.34 -1 7 C-0.67 4.69 -0.34 2.38 0 0 Z " fill="#9E9A95" transform="translate(281,143)"/>
<path d="M0 0 C0.598125 0.20625 1.19625 0.4125 1.8125 0.625 C-0.1675 1.945 -2.1475 3.265 -4.1875 4.625 C-4.5175 3.635 -4.8475 2.645 -5.1875 1.625 C-2.1875 -0.375 -2.1875 -0.375 0 0 Z " fill="#E7E1DA" transform="translate(292.1875,144.375)"/>
<path d="M0 0 C1.65 0 3.3 0 5 0 C5 0.99 5 1.98 5 3 C3.35 3.33 1.7 3.66 0 4 C0 2.68 0 1.36 0 0 Z " fill="#2D2B28" transform="translate(236,275)"/>
<path d="M0 0 C5.41538462 -0.36923077 5.41538462 -0.36923077 8.375 1.5 C8.91125 1.995 9.4475 2.49 10 3 C8.72125 3.061875 7.4425 3.12375 6.125 3.1875 C5.40570313 3.22230469 4.68640625 3.25710937 3.9453125 3.29296875 C3.30335938 3.19628906 2.66140625 3.09960938 2 3 C1.34 2.01 0.68 1.02 0 0 Z " fill="#908C87" transform="translate(173,216)"/>
<path d="M0 0 C0 0.66 0 1.32 0 2 C-2.31 2.66 -4.62 3.32 -7 4 C-7 3.01 -7 2.02 -7 1 C-4.53721199 -0.231394 -2.7204945 -0.07159196 0 0 Z " fill="#BDB8B2" transform="translate(283,178)"/>
<path d="M0 0 C0.33 0.99 0.66 1.98 1 3 C1.66 3 2.32 3 3 3 C3 3.66 3 4.32 3 5 C2.34 5 1.68 5 1 5 C1 5.66 1 6.32 1 7 C0.34 7 -0.32 7 -1 7 C-1.33 5.68 -1.66 4.36 -2 3 C-1.34 3 -0.68 3 0 3 C0 2.01 0 1.02 0 0 Z " fill="#85817D" transform="translate(209,168)"/>
<path d="M0 0 C0.33 0.66 0.66 1.32 1 2 C1.99 2.33 2.98 2.66 4 3 C3.030625 3.12375 2.06125 3.2475 1.0625 3.375 C0.051875 3.58125 -0.95875 3.7875 -2 4 C-2.33 4.66 -2.66 5.32 -3 6 C-2.625 3.5625 -2.625 3.5625 -2 1 C-1.34 0.67 -0.68 0.34 0 0 Z " fill="#9D9994" transform="translate(287,150)"/>
</svg>
