<?xml version="1.0" encoding="UTF-8"?>
<svg version="1.1" xmlns="http://www.w3.org/2000/svg" width="48" height="48">
<path d="M0 0 C15.84 0 31.68 0 48 0 C48 15.84 48 31.68 48 48 C32.16 48 16.32 48 0 48 C0 32.16 0 16.32 0 0 Z " fill="#F7F7F7" transform="translate(0,0)"/>
<path d="M0 0 C0.66 0 1.32 0 2 0 C2 1.98 2 3.96 2 6 C3.32 5.67 4.64 5.34 6 5 C6.33 3.68 6.66 2.36 7 1 C7.66 1 8.32 1 9 1 C8.814375 1.969375 8.62875 2.93875 8.4375 3.9375 C8.293125 4.948125 8.14875 5.95875 8 7 C8.33 7.33 8.66 7.66 9 8 C9.1875 10.4375 9.1875 10.4375 9 13 C7 15 7 15 4.8359375 15.1953125 C3.61777344 15.16050781 3.61777344 15.16050781 2.375 15.125 C1.55773437 15.10695313 0.74046875 15.08890625 -0.1015625 15.0703125 C-0.72804688 15.04710937 -1.35453125 15.02390625 -2 15 C-1.34 14.67 -0.68 14.34 0 14 C0 9.38 0 4.76 0 0 Z " fill="#404040" transform="translate(28,17)"/>
<path d="M0 0 C6.0546875 -0.1953125 6.0546875 -0.1953125 8 0 C8.66 0.66 9.32 1.32 10 2 C9.34 3.65 8.68 5.3 8 7 C6.68 7 5.36 7 4 7 C4 5.02 4 3.04 4 1 C2.68 0.67 1.36 0.34 0 0 Z " fill="#D7D7D7" transform="translate(26,16)"/>
<path d="M0 0 C0.33 0 0.66 0 1 0 C1 3.96 1 7.92 1 12 C-2 9 -2 9 -2.3125 5.4375 C-2 2 -2 2 0 0 Z " fill="#2B2B2B" transform="translate(13,18)"/>
<path d="M0 0 C1.32 0.33 2.64 0.66 4 1 C4 2.65 4 4.3 4 6 C2.68 6.33 1.36 6.66 0 7 C0 4.69 0 2.38 0 0 Z " fill="#F9F9F9" transform="translate(31,24)"/>
</svg>
